<svg viewBox="0 0 167 126" fill="none" xmlns="http://www.w3.org/2000/svg">
<path d="M3.02134 49.3884L10.0792 45.2341L27.9055 75.5204L6.46556 88.14C3.01424 84.3943 1.05542 80.2878 0.594577 76.1442C0.547494 75.6983 0.511005 75.2475 0.491512 74.7997C0.477017 74.5078 0.473219 74.2089 0.486314 73.914C0.494312 73.4651 0.519203 73.0203 0.561088 72.5804L0.451826 59.6585L0.456225 59.6416C0.453626 59.4424 0.434133 59.2389 0.431633 59.0397C0.425935 58.957 0.430933 58.8681 0.431533 58.7961C0.422736 58.5862 0.430833 58.3808 0.43893 58.1755L0.443329 58.1585C0.443929 58.0865 0.450727 58.0251 0.451327 57.9531C0.450127 57.8535 0.465721 57.7583 0.464422 57.6588C0.46942 57.5698 0.480717 57.4915 0.485715 57.4025C0.490613 57.3137 0.495611 57.2247 0.511305 57.1295C0.522502 57.0512 0.533798 56.9729 0.5281 56.8902C0.576283 56.4606 0.634963 56.0246 0.710637 55.5932C0.717534 55.5318 0.735029 55.4641 0.741926 55.4027C0.79071 55.1447 0.84579 54.8973 0.911468 54.6436C0.93336 54.559 0.950854 54.4914 0.972747 54.4069C1.03413 54.1701 1.0954 53.9333 1.16738 53.6903C1.18487 53.6226 1.20867 53.5657 1.21556 53.5043C1.36381 53.0014 1.53535 52.5134 1.73438 52.0236C1.76687 51.9327 1.79946 51.842 1.83825 51.7618C1.87084 51.6709 1.90962 51.5907 1.95281 51.4937C2.02418 51.3226 2.10616 51.1454 2.18813 50.9682C2.22692 50.888 2.2701 50.7909 2.30899 50.7107C2.39096 50.5334 2.47293 50.3562 2.5719 50.1833C2.62128 50.0969 2.66006 50.0167 2.70955 49.9302C2.76343 49.8268 2.81721 49.7235 2.88169 49.6139C2.93747 49.5381 2.97186 49.4749 3.02134 49.3884C3.01694 49.4053 3.01694 49.4053 3.02134 49.3884Z" fill="#FFF5DD"/>
<path d="M15.4079 37.6547C15.2375 37.755 15.0779 37.8489 14.9182 37.9429L14.8437 37.9868C14.7159 38.062 14.5989 38.1308 14.4774 38.2167C14.4135 38.2543 14.3602 38.2856 14.2964 38.3233C14.1261 38.4234 13.9727 38.5281 13.8192 38.6328C13.6765 38.7311 13.5168 38.8251 13.374 38.9235C13.1461 39.0719 12.9288 39.2142 12.7178 39.367C12.5857 39.4592 12.4535 39.5513 12.3107 39.6496C12.1467 39.7605 11.9889 39.882 11.8248 39.993C11.7034 40.0788 11.5712 40.1709 11.456 40.2674C11.3133 40.3658 11.1874 40.4685 11.0509 40.5775C10.9826 40.632 10.9144 40.6866 10.8399 40.7303C10.8293 40.7366 10.808 40.7491 10.7973 40.7554C10.6821 40.8519 10.5606 40.9378 10.4347 41.0405C10.2982 41.1495 10.1617 41.2586 10.0252 41.3675C9.76283 41.5793 9.50681 41.8017 9.2507 42.0241C9.18243 42.0786 9.12045 42.1438 9.05217 42.1982C9.03088 42.2108 9.02648 42.2277 9.00519 42.2402C8.92192 42.3179 8.83235 42.385 8.74907 42.4626C8.45667 42.7208 8.17057 42.9896 7.89507 43.252C7.78611 43.3591 7.66655 43.4725 7.55758 43.5797C7.44862 43.6868 7.35036 43.7876 7.24139 43.8948C7.2157 43.9242 7.19001 43.9536 7.15812 43.9724C7.03846 44.0859 6.9358 44.2037 6.81624 44.317C6.81624 44.317 6.81624 44.317 6.80554 44.3233C6.70728 44.4242 6.60461 44.5419 6.50625 44.6428C6.46996 44.6785 6.43367 44.7142 6.41428 44.7543C6.31591 44.8551 6.22394 44.9666 6.12558 45.0675C6.02291 45.1853 5.93084 45.2968 5.82818 45.4145C5.78749 45.4671 5.75121 45.5029 5.72112 45.5492C5.64414 45.6376 5.57777 45.7196 5.50079 45.8079C5.4857 45.8311 5.46441 45.8437 5.44941 45.8669C5.34675 45.9846 5.25028 46.113 5.14762 46.2308C5.13262 46.2539 5.11763 46.2771 5.09633 46.2896C5.01486 46.3949 4.93349 46.5002 4.85212 46.6054C4.84152 46.6116 4.84152 46.6116 4.83712 46.6286C4.74066 46.757 4.64429 46.8854 4.55852 47.0076C4.47275 47.1297 4.38698 47.2519 4.30121 47.3741C4.23043 47.473 4.14906 47.5782 4.08458 47.6879C4.0439 47.7404 4.00941 47.8037 3.96872 47.8564C3.96872 47.8564 3.95812 47.8626 3.96432 47.8733C3.89365 47.9723 3.83347 48.0649 3.76279 48.1639C3.49668 48.5641 3.25377 48.9795 3.02155 49.3886C3.02155 49.3886 3.02155 49.3886 3.01715 49.4055C2.98276 49.4687 2.93768 49.5382 2.90329 49.6015C2.84941 49.7049 2.79553 49.8082 2.73105 49.9178C2.68166 50.0042 2.64288 50.0844 2.5934 50.1709C2.50073 50.3544 2.41246 50.5211 2.33049 50.6983C2.2917 50.7785 2.24851 50.8755 2.20963 50.9557C2.12766 51.133 2.04568 51.3103 1.97431 51.4812C1.94172 51.5721 1.90293 51.6523 1.85975 51.7493C1.82726 51.8402 1.78837 51.9204 1.75588 52.0112C1.55685 52.501 1.39161 52.9996 1.23706 53.4919C1.21327 53.5489 1.19578 53.6165 1.18888 53.6779C1.1169 53.9209 1.05563 54.1577 0.994246 54.3944C0.972354 54.479 0.95486 54.5467 0.932968 54.6312C0.867291 54.8849 0.818507 55.1429 0.763426 55.3903C0.756528 55.4517 0.739035 55.5194 0.732137 55.5807C0.656563 56.0123 0.591485 56.4375 0.549699 56.8779C0.538403 56.9562 0.527108 57.0344 0.532806 57.1171C0.527808 57.2061 0.512212 57.3012 0.507214 57.3902C0.502216 57.4791 0.49092 57.5574 0.485921 57.6463C0.481023 57.7353 0.471627 57.8412 0.472926 57.9407C0.472326 58.0127 0.465428 58.0741 0.464828 58.1461L0.460431 58.163C0.452333 58.3685 0.444236 58.5739 0.453033 58.7837C0.458731 58.8664 0.447435 58.9447 0.453133 59.0273C0.455732 59.2265 0.458231 59.4256 0.477724 59.6292L0.473326 59.6461C0.478424 59.8008 0.494119 59.9492 0.505415 60.1146C0.517311 60.2078 0.523009 60.2905 0.534905 60.3839C0.546201 60.5492 0.568193 60.7083 0.590186 60.8674C0.593885 60.9225 0.597683 60.9776 0.612078 61.0265C0.615877 61.0815 0.630272 61.1304 0.63407 61.1855C0.639768 61.2682 0.656063 61.3445 0.661661 61.4272C0.671758 61.493 0.681754 61.5588 0.691851 61.6245C0.701847 61.6903 0.711844 61.756 0.726339 61.8049C0.795315 62.1657 0.857994 62.5157 0.95456 62.8745C0.975253 62.934 0.98525 62.9998 1.00594 63.0593C1.02854 63.1463 1.05113 63.2334 1.07992 63.3311C1.19908 63.777 1.33513 64.2272 1.49238 64.665C1.52566 64.7458 1.55445 64.8434 1.58764 64.9242C1.62273 65.0326 1.66851 65.1346 1.7036 65.243C1.7243 65.3025 1.74939 65.3451 1.77008 65.4045C1.79077 65.4641 1.81766 65.5342 1.84905 65.5875C1.86975 65.647 1.90103 65.7001 1.92792 65.7703C1.95492 65.8404 1.9881 65.9213 2.02139 66.002C2.06088 66.0934 2.09407 66.1742 2.12726 66.255C2.16674 66.3464 2.20623 66.4379 2.25631 66.5231C1.34563 68.5068 0.803112 70.5321 0.610178 72.5664C0.568293 73.0062 0.543402 73.4511 0.535305 73.8999C0.532905 74.1878 0.536804 74.4867 0.540602 74.7856C0.560096 75.2325 0.590286 75.6733 0.643668 76.1292C1.11071 80.2837 3.06333 84.3803 6.51464 88.125C8.90782 90.7301 12.0311 93.1633 15.8621 95.3375C36.1072 106.843 68.8513 106.561 88.9502 94.7307C99.0738 88.7728 104.063 81.0055 103.918 73.3081L152.412 44.7502L152.476 44.7126L152.414 44.7058L152.287 29.3433L152.426 29.2618L152.286 29.2437L131.4 26.7309L130.708 26.6509L110.374 24.1998L105.741 12.5069L105.576 12.1029L100.794 0.010376L52.2194 28.6012C38.8786 28.6561 25.5317 31.6959 15.4079 37.6547Z" fill="#FFF5DD"/>
<path d="M100.787 0L105.574 12.1032L105.734 12.4965L110.356 24.1959L130.701 26.6405L131.393 26.7205L152.285 29.244L152.419 29.2515L152.436 29.2559L152.287 29.3436L130.634 42.0882L103.861 57.8468L98.8787 60.7792L95.5999 62.709L93.1517 64.1501L84.4116 69.2945L79.8341 71.9886L70.5363 77.4757L68.9232 76.562L51.0943 66.4585L47.3159 64.325L45.6334 63.366L38.3297 59.2369L32.2869 55.8132L27.3214 53.0024L21.8542 49.8993L18.8877 48.2198L43.9576 33.4638L52.2185 28.6015L100.787 0Z" fill="#A09DF1"/>
<path d="M105.734 12.497L110.356 24.1964L130.701 26.641L110.07 38.7842L98.8708 45.3758L93.1328 48.753L87.6506 51.9799L84.4566 53.8597L80.2411 56.3409L70.3941 62.1368L68.6947 61.1733L60.2039 56.3669L58.8334 55.5969L58.2283 55.2507L47.1336 48.9668L46.598 48.6657L45.4975 48.0379L45.4342 48.0035L52.1302 44.0622L55.2812 42.2076L59.4968 39.7263L68.1666 34.609L73.9045 31.2318L105.734 12.497Z" fill="#847EFF"/>
<path d="M15.407 37.6568C25.5308 31.698 38.8839 28.6688 52.2185 28.6033C59.6357 28.5662 67.0495 29.4486 73.911 31.2437C73.9448 31.2525 73.9787 31.2612 74.0018 31.2763C79.2569 32.6552 84.1895 34.5822 88.5387 37.0531C88.8446 37.2315 89.1505 37.41 89.4563 37.5884C93.404 39.9372 96.5469 42.5737 98.8661 45.394C102.109 49.3194 103.773 53.5853 103.856 57.8654C103.858 57.893 103.86 57.9205 103.862 57.9481C103.894 60.6092 103.33 63.278 102.134 65.8738C100.882 68.6168 98.9491 71.2749 96.339 73.757C94.2807 75.7134 91.7945 77.5777 88.8885 79.2891C83.0654 82.716 76.1849 85.1751 68.8444 86.6576C67.6157 86.9075 66.3682 87.1264 65.1081 87.3234C63.9138 87.5103 62.7177 87.6692 61.5027 87.7972C46.4787 89.4726 30.46 87.2914 18.2387 81.2125C17.3906 80.7936 16.5681 80.3458 15.7563 79.8919C12.7496 78.1935 10.1851 76.3202 8.05569 74.3338C5.42399 71.8837 3.48236 69.2426 2.2109 66.5226C2.17142 66.4312 2.13193 66.3398 2.08185 66.2546C2.04236 66.1632 2.00917 66.0824 1.97588 66.0016C1.94269 65.9208 1.9158 65.8507 1.88251 65.7699C1.86182 65.7104 1.82423 65.6465 1.80354 65.587C1.78285 65.5276 1.75596 65.4574 1.72457 65.4042C1.70398 65.3446 1.68948 65.2959 1.65819 65.2426C1.61241 65.1405 1.57732 65.0321 1.54223 64.9239C1.50275 64.8324 1.48015 64.7453 1.44696 64.6646C1.28962 64.2268 1.15367 63.7766 1.03451 63.3306C1.01191 63.2437 0.989423 63.1566 0.960533 63.0589C0.93984 62.9993 0.929843 62.9337 0.90915 62.8741C0.829478 62.5197 0.749905 62.1652 0.680829 61.8045C0.670832 61.7387 0.660835 61.673 0.64634 61.6241C0.636344 61.5583 0.626347 61.4926 0.616251 61.4269C0.599956 61.3504 0.594258 61.2677 0.58866 61.1851C0.584861 61.13 0.570467 61.0811 0.566668 61.026C0.56287 60.9709 0.559171 60.9158 0.544676 60.867C0.522783 60.7078 0.511487 60.5425 0.489495 60.3834C0.477599 60.2902 0.471901 60.2075 0.460005 60.1141C0.454907 59.9595 0.439212 59.811 0.427915 59.6457L0.432314 59.6288C0.429715 59.4296 0.410222 59.226 0.407723 59.0269C0.402025 58.9442 0.407023 58.8553 0.407623 58.7833C0.398826 58.5735 0.406923 58.368 0.415021 58.1626L0.419418 58.1457C0.420018 58.0736 0.426816 58.0123 0.427416 57.9403C0.426216 57.8407 0.441811 57.7454 0.440511 57.6459C0.445509 57.557 0.456806 57.4786 0.461804 57.3898C0.466702 57.3008 0.471701 57.2118 0.487396 57.1167C0.498592 57.0384 0.509888 56.9601 0.50419 56.8774C0.552373 56.4478 0.611053 56.0118 0.686727 55.5803C0.693625 55.5189 0.711118 55.4513 0.718016 55.3899C0.766799 55.1319 0.82188 54.8844 0.887558 54.6308C0.90945 54.5463 0.926944 54.4786 0.948836 54.394C1.01021 54.1573 1.07149 53.9205 1.14347 53.6775C1.16096 53.6099 1.18475 53.5529 1.19165 53.4915C1.3399 52.9885 1.51144 52.5006 1.71047 52.0107C1.74296 51.92 1.77555 51.8291 1.81434 51.7489C1.84683 51.6582 1.88571 51.578 1.9289 51.4809C2.00027 51.3099 2.08225 51.1326 2.16422 50.9553C2.20301 50.8751 2.24619 50.778 2.28508 50.6979C2.36705 50.5206 2.44902 50.3434 2.54788 50.1705C2.59737 50.084 2.63615 50.0038 2.68564 49.9175C2.73952 49.8141 2.7933 49.7107 2.85778 49.6011C2.89227 49.5378 2.93735 49.4683 2.97174 49.405C2.97174 49.405 2.98234 49.3987 2.97614 49.3881C3.20836 48.9791 3.45757 48.5744 3.71738 48.1635C3.77746 48.0708 3.84814 47.9718 3.91891 47.8729C3.91891 47.8729 3.92961 47.8666 3.92331 47.856C3.964 47.8033 3.99839 47.7401 4.03917 47.6874C4.10985 47.5885 4.18502 47.4726 4.2557 47.3736C4.34147 47.2515 4.42724 47.1293 4.51301 47.0072C4.60948 46.8787 4.70584 46.7503 4.79161 46.6282C4.80231 46.6219 4.80231 46.6219 4.80671 46.605C4.88808 46.4997 4.96945 46.3945 5.05082 46.2893C5.06592 46.2661 5.08091 46.2429 5.10221 46.2304C5.19857 46.102 5.30134 45.9842 5.404 45.8664C5.419 45.8433 5.43399 45.8201 5.45528 45.8076C5.53236 45.7192 5.59873 45.6371 5.67571 45.5489C5.712 45.5131 5.75268 45.4605 5.78277 45.4141C5.87484 45.3026 5.9775 45.1849 6.08017 45.0671C6.17224 44.9556 6.2705 44.8547 6.36877 44.7538C6.40516 44.7181 6.44144 44.6825 6.46084 44.6424C6.5591 44.5415 6.66187 44.4237 6.76014 44.3229C6.76014 44.3229 6.76013 44.3229 6.77083 44.3166C6.87349 44.1988 6.99305 44.0855 7.11261 43.972C7.1383 43.9426 7.164 43.9131 7.19588 43.8943C7.29425 43.7935 7.40321 43.6864 7.51217 43.5792C7.62104 43.4721 7.7407 43.3587 7.84966 43.2516C8.12516 42.9891 8.41127 42.7203 8.70366 42.4622C8.78694 42.3845 8.87021 42.3069 8.95978 42.2398C8.98107 42.2273 8.98547 42.2104 9.00676 42.1979C9.07504 42.1433 9.13702 42.0783 9.20519 42.0237C9.4613 41.8013 9.72371 41.5895 9.97983 41.3671C10.1163 41.2581 10.2528 41.1491 10.3893 41.0401C10.5045 40.9436 10.626 40.8578 10.7519 40.755C10.7625 40.7488 10.7732 40.7425 10.7944 40.73C10.8627 40.6754 10.9309 40.621 11.0055 40.5771C11.1419 40.4681 11.2741 40.3759 11.4106 40.267C11.5321 40.1811 11.6579 40.0784 11.7794 39.9926C11.9434 39.8817 12.1013 39.7601 12.2653 39.6492C12.3975 39.5571 12.5295 39.465 12.6723 39.3667C12.8833 39.2137 13.1007 39.0716 13.3286 38.923C13.4713 38.8247 13.6204 38.737 13.7738 38.6323C13.9273 38.5277 14.0976 38.4274 14.251 38.3228C14.3148 38.2853 14.3787 38.2477 14.432 38.2163C14.5596 38.1411 14.6705 38.0615 14.7983 37.9864L14.8727 37.9425C15.077 37.851 15.2366 37.757 15.407 37.6568Z" fill="#FAE0A1"/>
<path d="M51.9421 32.9711C27.5612 33.1754 7.89215 44.7551 8.01011 58.8351C8.12807 72.9153 27.9883 84.1634 52.3691 83.9594C76.75 83.7555 96.4186 72.1755 96.3007 58.0956C96.1827 44.0155 76.323 32.7669 51.9421 32.9711Z" fill="#FFB500"/>
<path d="M31.9059 70.3871L38.5861 58.7721L25.876 49.1104L47.0041 49.0873L59.1116 39.0226L65.4753 50.6138L85.6845 54.07L68.5019 61.2594L68.8716 73.4551L51.8756 66.3011L31.9059 70.3871Z" fill="#FFCB4B"/>
<path d="M152.412 44.7499L152.414 44.7047L152.476 44.7117L152.412 44.7499Z" fill="#A09DF1"/>
<path d="M152.286 29.2442L152.42 29.2517L152.437 29.2561L152.288 29.3438L152.286 29.2442Z" fill="#A09DF1"/>
<path d="M103.817 57.9162L103.804 56.3612C103.855 56.8616 103.895 57.3682 103.902 57.8662L130.675 42.1076L152.329 29.363L152.454 44.7255L152.516 44.7323L152.452 44.77L103.958 73.3271C103.956 73.5441 103.965 73.753 103.952 73.9759L103.837 59.7532L103.817 57.9162Z" fill="#B7B3E6"/>
<path d="M144.175 76.1891L149.492 86.0667L166.595 89.1367L151.974 95.1066L152.201 105.447L137.852 99.2632L120.888 102.583L126.638 92.7934L115.931 84.5023L133.835 84.6352L144.175 76.1891Z" fill="#F8B655"/>
<path d="M166.597 85.149V89.1367L151.975 95.1066V91.119L166.597 85.149Z" fill="#F8B655"/>
<path d="M137.852 95.2756V99.2642L152.202 105.447V101.459L137.852 95.2756Z" fill="#F8B655"/>
<path d="M137.85 95.2756V99.2642L120.886 102.583V98.5954L137.85 95.2756Z" fill="#FFDB85"/>
<path d="M115.931 80.5156V84.5032L125.03 91.5458L126.638 88.7988L115.931 80.5156Z" fill="#FFDB85"/>
<path d="M144.175 72.2025L149.492 82.0791L166.595 85.1491L151.974 91.12L152.201 101.459L137.852 95.2766L120.888 98.5954L126.638 88.7988L115.931 80.5157L133.835 80.6476L144.175 72.2025Z" fill="#FFEFCA"/>
<path d="M109.346 103.437L113.447 111.054L126.636 113.421L115.361 118.026L115.536 126L104.47 121.232L91.3874 123.791L95.8219 116.242L87.5647 109.848L101.372 109.95L109.346 103.437Z" fill="#1696B3"/>
<path d="M126.637 110.346V113.421L115.361 118.026V114.951L126.637 110.346Z" fill="#1696B3"/>
<path d="M104.471 118.156V121.232L115.537 126V122.925L104.471 118.156Z" fill="#1696B3"/>
<path d="M104.47 118.156V121.232L91.3876 123.791V120.716L104.47 118.156Z" fill="#47D2CD"/>
<path d="M87.5647 106.773V109.848L94.5823 115.279L95.8219 113.161L87.5647 106.773Z" fill="#47D2CD"/>
<path d="M109.346 100.362L113.446 107.979L126.636 110.346L115.36 114.951L115.536 122.925L104.47 118.156L91.3874 120.716L95.8219 113.161L87.5647 106.773L101.372 106.875L109.346 100.362Z" fill="#A9DED9"/>
</svg>
