<svg viewBox="0 0 54 80" xmlns="http://www.w3.org/2000/svg">
<path d="M0.155273 4.56416L45.9311 31.0306L53.9431 26.4735L8.16022 0L0.155273 4.56416Z" fill="#1696B3"/>
<path d="M0 53.5406L45.7759 79.9718L45.9313 30.9954L0.155436 4.56421L0 53.5406Z" fill="#A9DED9"/>
<path d="M53.7947 75.4499L45.7827 80L45.9311 31.0235L53.9431 26.4735L53.7947 75.4499Z" fill="#22B4AE"/>
<path d="M0 53.5265V63.976L9.05767 58.7477L0 53.5265Z" fill="#A9DED9"/>
<path d="M16.1655 25.3149C15.9473 24.0876 15.3637 22.9549 14.491 22.0648C12.1736 20.1219 9.05782 24.1844 7.52466 31.172C5.99149 38.1595 6.62737 45.359 8.94477 47.3373C9.27674 47.632 9.7011 47.8017 10.1447 47.8172C10.5884 47.8327 11.0235 47.6929 11.3752 47.4221C13.1203 46.3128 14.9079 42.9286 15.9111 38.2372C16.9144 33.5459 16.9921 28.5437 16.1655 25.3149Z" fill="#CC8535"/>
<path d="M36.8947 49.3297C36.6955 49.1411 36.4406 49.022 36.1681 48.9902C35.8956 48.9583 35.6201 49.0155 35.3828 49.153L35.8632 49.7465C36.5697 50.4531 36.7534 52.7281 36.2659 54.9395C35.7784 57.1509 34.8529 58.3732 34.1463 57.9846L33.6165 57.7373C33.7776 58.4254 34.1247 59.0559 34.6197 59.5602C35.8844 60.62 37.4105 59.1857 38.0322 56.3596C38.654 53.5335 38.1524 50.3824 36.8947 49.3297Z" fill="#FAE0A1"/>
<path d="M26.3046 54.063C26.3046 55.5679 25.2518 56.1825 23.9518 55.4265C23.3452 55.0274 22.8271 54.5079 22.4297 53.9002C22.0323 53.2925 21.764 52.6096 21.6415 51.8939L19.2534 50.7847C19.479 52.2662 20.0139 53.6836 20.8234 54.9447C21.6329 56.2058 22.6988 57.2823 23.9518 58.1043C26.573 59.6162 28.7067 58.3869 28.7067 55.363C28.7067 55.2852 28.7067 55.2005 28.7067 55.1227L26.3116 54.0064L26.3046 54.063Z" fill="#FAE0A1"/>
<path d="M35.8564 49.7536L35.376 49.1601L16.1726 25.3077C16.9992 28.5366 16.9639 33.4187 15.9182 38.1877C14.8726 42.9568 13.1274 46.2704 11.3823 47.3726L19.2601 51.0465L21.6482 52.1557L26.3112 54.3248L28.7064 55.4411L33.6026 57.7232L34.1325 57.9705C34.839 58.3591 35.7999 57.059 36.2521 54.9253C36.7042 52.7916 36.5629 50.4601 35.8564 49.7536Z" fill="#FAE0A1"/>
<path d="M13.2271 34.2839C14.2164 28.7408 13.8725 24.0428 12.4589 23.7905C11.0453 23.5382 9.09729 27.8271 8.10793 33.3702C7.11856 38.9132 7.46249 43.6113 8.87609 43.8636C10.2897 44.1159 12.2377 39.8269 13.2271 34.2839Z" fill="#FAE0A1"/>
</svg>
