<svg width="118" height="127" viewBox="0 0 118 127" fill="none" xmlns="http://www.w3.org/2000/svg">
<path d="M88.2359 58.7896L88.7505 115.276L69.8651 126.379V67.0994L70.2731 66.8735L71.974 65.907C73.3861 65.1036 75.2941 64.0241 77.2461 62.8943C79.198 61.7646 81.2127 60.6035 82.8382 59.6432C84.4638 58.6829 85.7065 57.9172 86.1458 57.5846C86.52 57.3213 86.7855 56.9309 86.8927 56.4862C86.9994 56.1724 86.535 55.7331 86.5099 55.4506C87.9095 56.7561 88.2359 57.5908 88.2359 58.7896Z" fill="#F8B454"/>
<path d="M69.903 126.172V67.0367L0.374146 27.0817V86.2108L69.903 126.172Z" fill="#FAE0A1"/>
<path d="M18.6954 16.5561C13.825 17.5164 4.59259 24.0877 0.582031 27.2258L69.9729 67.0741C74.1592 64.6702 82.7012 59.8877 85.287 58.2872C87.8729 56.6868 86.8687 55.4566 86.0402 55.055L18.6954 16.5561Z" fill="#CE9489"/>
<path d="M21.8363 82.1187C23.8949 87.0832 26.9264 91.0687 30.1398 93.5039C33.3533 95.9391 36.6986 96.7864 39.4288 95.6566C42.159 94.5269 43.9163 91.577 44.4498 87.5665C44.9833 83.5559 44.3243 78.6102 42.2719 73.6456C40.2196 68.6811 37.1819 64.7019 33.9621 62.2604C30.7424 59.8189 27.4096 58.9779 24.6794 60.1139C21.9493 61.2499 20.1856 64.1873 19.6584 68.1978C19.1312 72.2084 19.8028 77.1541 21.8363 82.1187Z" fill="#C6C3FA"/>
<path d="M47.9389 73.6143C48.3708 74.7085 49.0751 75.6743 49.985 76.4198C50.2314 76.7058 50.5618 76.9065 50.9292 76.9933C51.2965 77.08 51.6819 77.0483 52.0301 76.9028C52.3783 76.7572 52.6716 76.5052 52.8679 76.1828C53.0643 75.8605 53.1536 75.4843 53.1232 75.1081C53.2168 73.9393 53.0318 72.7649 52.5834 71.6815C52.135 70.5981 51.4359 69.6365 50.5436 68.8757C49.7528 68.2481 49.0185 68.1288 48.4724 68.3611C48.1471 68.543 47.8747 68.8065 47.6821 69.1256C47.4895 69.4448 47.3834 69.8086 47.3741 70.1812C47.2662 71.355 47.4606 72.5369 47.9389 73.6143Z" fill="#7974F3"/>
<path d="M67.6047 57.2393C67.6375 57.6612 67.7783 58.0675 68.0135 58.4192C68.2488 58.771 68.5705 59.0563 68.9479 59.2477C70.0925 59.9016 71.3961 60.2253 72.7136 60.1829C74.1688 60.1996 75.6074 59.8727 76.9125 59.2289C78.0422 58.6326 78.6071 57.8983 78.6071 57.2393C78.5769 56.8216 78.4375 56.4191 78.2029 56.0721C77.9683 55.7251 77.6467 55.4459 77.2702 55.2623C76.1204 54.6238 74.8189 54.3093 73.5045 54.3522C72.0522 54.3365 70.6157 54.6542 69.3056 55.2811C68.1633 55.8585 67.6047 56.5803 67.6047 57.2393Z" fill="#F8B454"/>
<path d="M21.899 29.5171C21.9181 29.7894 22.0072 30.0522 22.1579 30.2799C22.3086 30.5075 22.5156 30.6923 22.7589 30.8162C23.4949 31.2461 24.3357 31.4634 25.1878 31.4439C26.1244 31.4509 27.0493 31.2358 27.8866 30.8162C28.6147 30.4397 28.985 29.9627 28.985 29.5296C28.9611 29.2635 28.8687 29.008 28.717 28.7881C28.5652 28.5682 28.3592 28.3912 28.1189 28.2743C27.3775 27.8622 26.5376 27.6604 25.6899 27.6906C24.757 27.6781 23.8337 27.88 22.9911 28.2806C22.2631 28.6195 21.899 29.084 21.899 29.5171Z" fill="#F8B454"/>
<path d="M11.2814 23.5357C11.3132 23.9304 11.4453 24.3104 11.6649 24.6399C11.8845 24.9693 12.1846 25.2373 12.5366 25.4186C13.5807 26.0134 14.7687 26.3087 15.9698 26.2721C17.2879 26.2853 18.5907 25.9886 19.7732 25.406C20.79 24.8662 21.3486 24.1507 21.3486 23.5231C21.3227 23.1268 21.1932 22.7442 20.9728 22.4137C20.7525 22.0833 20.4492 21.8165 20.0933 21.6402C19.0417 21.0618 17.8535 20.7777 16.6539 20.818C15.341 20.8021 14.0419 21.0876 12.8567 21.6528C11.8337 22.1925 11.2814 22.8641 11.2814 23.5357Z" fill="#F8B454"/>
<path d="M27.1639 80.5368C28.0161 82.7421 29.4261 84.6885 31.2561 86.1854C32.844 87.3842 34.4256 87.7545 35.6872 87.2336C36.9487 86.7126 37.8086 85.3507 38.0784 83.3548C38.2683 81.013 37.8983 78.6596 36.999 76.4889C36.0998 74.3183 34.6971 72.3928 32.9068 70.8713C31.3189 69.6662 29.731 69.2959 28.4694 69.8168C27.2079 70.3378 26.3543 71.6997 26.0844 73.6956C25.847 76.031 26.2189 78.388 27.1639 80.5368Z" fill="#7974F3"/>
<path d="M33.2617 17.7866L63.8964 35.2787L68.5973 32.561L37.9627 15.069L33.2617 17.7866Z" fill="#A09DF1"/>
<path d="M68.5947 48.22L63.8938 50.9189V35.2595L68.5885 32.5607L68.5947 48.22Z" fill="#7974F3"/>
<path d="M33.2617 33.5024L63.8964 50.9191V35.2598L33.268 17.843L33.2617 33.5024Z" fill="#C6C3FA"/>
<path d="M54.9406 41.5802V34.7265L42.2185 27.1949V34.0424L54.9406 41.5802Z" fill="#7974F3"/>
<path d="M28.558 36.2516L59.1926 53.75L63.8936 51.0261L33.2589 33.534L28.558 36.2516Z" fill="#F8B454"/>
<path d="M86.9467 44.8719V0.37915L117.65 18.1034V62.5962L86.9467 44.8719Z" fill="#A09DF1"/>
<path d="M114.292 52.3346V19.5597L90.3043 5.70789V38.4828L114.292 52.3346Z" fill="#ECEBFF"/>
<path d="M110.024 11.3187L96.7997 3.68042V7.27675L110.024 14.915V11.3187Z" fill="#D8B4AB"/>
</svg>
