<svg viewBox="0 0 158 126" fill="none" xmlns="http://www.w3.org/2000/svg">
<path fill-rule="evenodd" clip-rule="evenodd" d="M51.9772 64.1379L57.6812 69.666L48.8484 72.7158L43.2938 67.3458C40.7011 67.8995 38.0029 68.1719 35.3136 68.1895L32.3517 74.8427L22.3764 73.3574L25.224 66.9679C22.8158 66.3439 20.5659 65.4738 18.5884 64.384L9.36012 68.128L3.44523 63.2678L12.8317 59.4534C11.6364 57.7044 11.1003 55.8588 11.1794 54.0395L0 52.5542L2.30268 46.7623L13.6579 48.2652C14.9322 46.7799 16.6812 45.4176 18.8784 44.2487L12.9899 39.0018L21.6381 35.7763L27.7815 41.2517C30.7082 40.7156 33.7491 40.5135 36.7286 40.6365L39.7959 34.5546L49.6833 36.2157L46.6072 42.3152C48.8572 43.0359 50.9313 43.9675 52.7243 45.1012L62.4183 42.113L67.2698 47.36L57.8569 50.2603C58.604 51.6401 58.9643 53.0551 58.9468 54.4614L70.425 56.2543L67.7444 61.9934L56.6792 60.2708C55.5279 61.6858 53.9547 62.9953 51.9772 64.1379Z" fill="#7974F3"/>
<path d="M35.0706 63.6369C43.9145 63.6369 51.0839 59.4973 51.0839 54.391C51.0839 49.2847 43.9145 45.1451 35.0706 45.1451C26.2268 45.1451 19.0574 49.2847 19.0574 54.391C19.0574 59.4973 26.2268 63.6369 35.0706 63.6369Z" fill="#7974F3"/>
<path d="M35.069 61.7036C42.0635 61.7036 47.7337 58.4298 47.7337 54.3913C47.7337 50.3528 42.0635 47.079 35.069 47.079C28.0744 47.079 22.4042 50.3528 22.4042 54.3913C22.4042 58.4298 28.0744 61.7036 35.069 61.7036Z" fill="#7974F3"/>
<path fill-rule="evenodd" clip-rule="evenodd" d="M3.44672 54.672V63.2675L9.36161 68.1277V59.5322L3.44672 54.672Z" fill="#C6C4FA"/>
<path fill-rule="evenodd" clip-rule="evenodd" d="M18.589 55.7888V64.3843L9.36072 68.1284V59.5329L18.589 55.7888Z" fill="#7974F3"/>
<path fill-rule="evenodd" clip-rule="evenodd" d="M56.6793 51.6748V60.2703L46.7743 57.1854L56.6793 51.6748Z" fill="#A09DF1"/>
<path fill-rule="evenodd" clip-rule="evenodd" d="M25.2262 58.3722V66.9677C22.818 66.3437 20.5681 65.4736 18.5906 64.3838V55.7971L19.3113 56.0784L23.9166 57.8625L25.2262 58.3722Z" fill="#A09DF1"/>
<path fill-rule="evenodd" clip-rule="evenodd" d="M22.3876 64.7623L22.3788 73.3578L32.3542 74.8431V66.2476L22.3876 64.7623Z" fill="#C6C4FA"/>
<path fill-rule="evenodd" clip-rule="evenodd" d="M43.2936 58.7498V67.3452C40.7009 67.8989 38.0027 68.1714 35.3133 68.189V59.5935L43.2936 58.7498Z" fill="#A09DF1"/>
<path fill-rule="evenodd" clip-rule="evenodd" d="M43.2949 58.7498V67.3452L48.8495 72.7152V64.1197L43.2949 58.7498Z" fill="#7974F3"/>
<path fill-rule="evenodd" clip-rule="evenodd" d="M57.6837 69.6662L57.6925 61.0707L48.8509 64.1204V72.7159L57.6837 69.6662Z" fill="#C6C4FA"/>
<path fill-rule="evenodd" clip-rule="evenodd" d="M67.7433 53.3974V61.9929L56.6782 60.2703V51.6748L67.7433 53.3974Z" fill="#7974F3"/>
<path fill-rule="evenodd" clip-rule="evenodd" d="M70.4254 47.6589V56.2544L67.7448 61.9935V53.398L70.4254 47.6589Z" fill="#C6C4FA"/>
<path fill-rule="evenodd" clip-rule="evenodd" d="M67.2805 38.7646V48.2038L56.2505 47.0788L55.9078 40.6366L67.2805 38.7646Z" fill="#7974F3"/>
<path fill-rule="evenodd" clip-rule="evenodd" d="M13.0015 30.4058L12.9927 39.0013L15.726 41.4622L21.4915 34.5542L13.0015 30.4058Z" fill="#7974F3"/>
<path fill-rule="evenodd" clip-rule="evenodd" d="M49.6846 27.6198V37.5599L42.926 34.3344L49.6846 27.6198Z" fill="#7974F3"/>
<path fill-rule="evenodd" clip-rule="evenodd" d="M0 43.9586V52.5541L16.1187 54.6985L16.5582 46.6392L11.6716 42.4381L0 43.9586Z" fill="#7974F3"/>
<path fill-rule="evenodd" clip-rule="evenodd" d="M12.9987 30.4062L21.6381 27.1719L27.7815 32.6561C30.7082 32.1112 33.7491 31.9179 36.7374 32.0409L39.8047 25.959L49.6921 27.6201L46.616 33.7196C48.8659 34.4315 50.9401 35.3719 52.733 36.5057L62.4271 33.5174L67.2786 38.7644L57.8657 41.6735C58.6128 43.0445 58.9731 44.4683 58.9555 45.8746L70.4338 47.6675L67.7444 53.4066L56.6792 51.684C55.5279 53.099 53.9547 54.4085 51.9772 55.5511L57.6899 61.0792L48.8484 64.129L43.3026 58.759C40.7099 59.3127 38.0029 59.5851 35.3136 59.6027L32.3517 66.2559L22.3764 64.7793L25.224 58.3811C22.8158 57.7571 20.5659 56.887 18.5884 55.7972L9.36011 59.5412L3.44523 54.6722L12.8405 50.8578C11.6452 49.1088 11.1003 47.2632 11.1882 45.4351L0 43.9586L2.30268 38.1667L13.6579 39.6696C14.9322 38.1843 16.6812 36.8221 18.8696 35.6531L12.9987 30.4062Z" fill="#ECEBFF"/>
<path d="M35.069 53.1077C42.0635 53.1077 47.7337 49.8339 47.7337 45.7954C47.7337 41.7569 42.0635 38.4831 35.069 38.4831C28.0744 38.4831 22.4042 41.7569 22.4042 45.7954C22.4042 49.8339 28.0744 53.1077 35.069 53.1077Z" fill="#7974F3"/>
<path fill-rule="evenodd" clip-rule="evenodd" d="M132.729 111.606L140.399 119.039L128.522 123.14L121.053 115.92C117.567 116.664 113.939 117.03 110.323 117.054L106.341 126L92.9277 124.003L96.7566 115.411C93.5186 114.572 90.4933 113.403 87.8343 111.937L75.4259 116.971L67.4727 110.436L80.0938 105.307C78.4866 102.956 77.7658 100.474 77.8721 98.0279L62.8402 96.0307L65.9364 88.2429L81.2047 90.2637C82.9182 88.2666 85.2699 86.4349 88.2243 84.8631L80.3065 77.808L91.935 73.471L100.195 80.8333C104.131 80.1125 108.22 79.8407 112.226 80.0061L116.35 71.8284L129.645 74.0619L125.509 82.2633C128.534 83.2323 131.323 84.485 133.734 86.0094L146.768 81.9915L153.292 89.0465L140.635 92.9463C141.64 94.8017 142.124 96.7043 142.101 98.5951L157.534 101.006L153.93 108.723L139.052 106.407C137.503 108.309 135.388 110.07 132.729 111.606Z" fill="#F8A327"/>
<path d="M109.993 110.932C121.884 110.932 131.524 105.366 131.524 98.5002C131.524 91.6342 121.884 86.0682 109.993 86.0682C98.1013 86.0682 88.4613 91.6342 88.4613 98.5002C88.4613 105.366 98.1013 110.932 109.993 110.932Z" fill="#F8A327"/>
<path d="M109.991 108.333C119.396 108.333 127.02 103.931 127.02 98.5005C127.02 93.0704 119.396 88.6683 109.991 88.6683C100.586 88.6683 92.9617 93.0704 92.9617 98.5005C92.9617 103.931 100.586 108.333 109.991 108.333Z" fill="#F8A327"/>
<path fill-rule="evenodd" clip-rule="evenodd" d="M67.4715 98.8783V110.436L75.4247 116.971V105.413L67.4715 98.8783Z" fill="#FAE0A1"/>
<path fill-rule="evenodd" clip-rule="evenodd" d="M87.8343 100.38V111.937L75.4258 116.972V105.414L87.8343 100.38Z" fill="#F8A327"/>
<path fill-rule="evenodd" clip-rule="evenodd" d="M139.052 94.8479V106.405L125.734 102.258L139.052 94.8479Z" fill="#F8B655"/>
<path fill-rule="evenodd" clip-rule="evenodd" d="M96.7558 103.854V115.411C93.5178 114.572 90.4925 113.402 87.8335 111.937V100.391L88.8026 100.769L94.995 103.168L96.7558 103.854Z" fill="#F8B655"/>
<path fill-rule="evenodd" clip-rule="evenodd" d="M92.938 112.445L92.9262 124.003L106.339 126V114.442L92.938 112.445Z" fill="#FAE0A1"/>
<path fill-rule="evenodd" clip-rule="evenodd" d="M121.055 104.361V115.919C117.569 116.663 113.941 117.029 110.325 117.053V105.496L121.055 104.361Z" fill="#F8B655"/>
<path fill-rule="evenodd" clip-rule="evenodd" d="M121.055 104.361V115.919L128.524 123.139V111.582L121.055 104.361Z" fill="#F8A327"/>
<path fill-rule="evenodd" clip-rule="evenodd" d="M140.398 119.039L140.41 107.482L128.521 111.583V123.14L140.398 119.039Z" fill="#FAE0A1"/>
<path fill-rule="evenodd" clip-rule="evenodd" d="M153.93 97.1641V108.722L139.052 106.405V94.8479L153.93 97.1641Z" fill="#F8A327"/>
<path fill-rule="evenodd" clip-rule="evenodd" d="M157.533 89.4484V101.006L153.929 108.723V97.1653L157.533 89.4484Z" fill="#FAE0A1"/>
<path fill-rule="evenodd" clip-rule="evenodd" d="M153.303 77.489V90.181L138.472 88.6684L138.011 80.0061L153.303 77.489Z" fill="#F8A327"/>
<path fill-rule="evenodd" clip-rule="evenodd" d="M80.3197 66.2497L80.3079 77.8073L83.9832 81.1162L91.7355 71.8276L80.3197 66.2497Z" fill="#F8A327"/>
<path fill-rule="evenodd" clip-rule="evenodd" d="M129.645 62.5035V75.8691L120.558 71.5321L129.645 62.5035Z" fill="#F8A327"/>
<path fill-rule="evenodd" clip-rule="evenodd" d="M62.8402 84.4725V96.03L84.5136 98.9135L85.1045 88.0768L78.5339 82.428L62.8402 84.4725Z" fill="#F8A327"/>
<path fill-rule="evenodd" clip-rule="evenodd" d="M80.3192 66.2501L91.9359 61.9012L100.196 69.2754C104.132 68.5427 108.22 68.2827 112.238 68.4481L116.363 60.2704L129.657 62.5039L125.521 70.7053C128.547 71.6625 131.336 72.927 133.746 74.4514L146.781 70.4335L153.304 77.4886L140.648 81.4002C141.652 83.2437 142.137 85.1581 142.113 87.049L157.547 89.4597L153.931 97.1766L139.052 94.8604C137.504 96.763 135.389 98.5238 132.73 100.06L140.411 107.493L128.523 111.594L121.066 104.373C117.58 105.118 113.94 105.484 110.324 105.508L106.341 114.454L92.9285 112.468L96.7574 103.865C93.5194 103.026 90.4941 101.856 87.8352 100.391L75.4268 105.425L67.4735 98.8783L80.1065 93.7495C78.4993 91.3978 77.7666 88.9161 77.8848 86.4581L62.8411 84.4727L65.9373 76.685L81.2055 78.7058C82.9191 76.7086 85.2708 74.8769 88.2133 73.3051L80.3192 66.2501Z" fill="#FFF4D9"/>
<path d="M109.992 96.7748C119.397 96.7748 127.021 92.3728 127.021 86.9426C127.021 81.5124 119.397 77.1104 109.992 77.1104C100.587 77.1104 92.9627 81.5124 92.9627 86.9426C92.9627 92.3728 100.587 96.7748 109.992 96.7748Z" fill="#F8A327"/>
<path fill-rule="evenodd" clip-rule="evenodd" d="M134.315 46.9231L141.325 53.7174L130.469 57.4656L123.643 50.8657C120.456 51.5462 117.14 51.8811 113.835 51.9027L110.194 60.0796L97.9344 58.2541L101.434 50.4012C98.4745 49.6343 95.7093 48.5649 93.2789 47.2255L81.9371 51.8271L74.6675 45.8537L86.2038 41.1658C84.7347 39.0162 84.0758 36.7479 84.173 34.5119L70.4332 32.6864L73.2633 25.5681L87.2191 27.4152C88.7854 25.5897 90.9349 23.9154 93.6353 22.4788L86.3982 16.0301L97.0271 12.0659L104.577 18.7954C108.174 18.1365 111.912 17.888 115.574 18.0393L119.343 10.5645L131.495 12.606L127.715 20.1024C130.48 20.9881 133.029 22.1331 135.233 23.5265L147.147 19.8539L153.11 26.3026L141.541 29.8671C142.459 31.563 142.902 33.3021 142.88 35.0304L156.987 37.2339L153.693 44.2875L140.094 42.1703C138.679 43.9094 136.745 45.5189 134.315 46.9231Z" fill="#08566B"/>
<path d="M113.531 46.3071C124.401 46.3071 133.212 41.2195 133.212 34.9437C133.212 28.6678 124.401 23.5803 113.531 23.5803C102.662 23.5803 93.8506 28.6678 93.8506 34.9437C93.8506 41.2195 102.662 46.3071 113.531 46.3071Z" fill="#08566B"/>
<path d="M113.531 43.931C122.128 43.931 129.097 39.9074 129.097 34.9439C129.097 29.9805 122.128 25.9569 113.531 25.9569C104.935 25.9569 97.9659 29.9805 97.9659 34.9439C97.9659 39.9074 104.935 43.931 113.531 43.931Z" fill="#08566B"/>
<path fill-rule="evenodd" clip-rule="evenodd" d="M74.6666 35.2892V45.8533L81.9361 51.8266V41.2625L74.6666 35.2892Z" fill="#23B5AF"/>
<path fill-rule="evenodd" clip-rule="evenodd" d="M93.2778 36.6615V47.2256L81.9359 51.8271V41.263L93.2778 36.6615Z" fill="#08566B"/>
<path fill-rule="evenodd" clip-rule="evenodd" d="M140.093 31.6055V42.1696L127.92 38.3782L140.093 31.6055Z" fill="#23B5AF"/>
<path fill-rule="evenodd" clip-rule="evenodd" d="M101.434 39.837V50.4011C98.4746 49.6341 95.7094 48.5648 93.279 47.2253V36.6721L94.1647 37.0177L99.8248 39.2105L101.434 39.837Z" fill="#23B5AF"/>
<path fill-rule="evenodd" clip-rule="evenodd" d="M97.9445 47.6899L97.9337 58.254L110.194 60.0795V49.5154L97.9445 47.6899Z" fill="#23B5AF"/>
<path fill-rule="evenodd" clip-rule="evenodd" d="M123.643 40.3008V50.8649C120.457 51.5454 117.141 51.8803 113.835 51.9019V41.3378L123.643 40.3008Z" fill="#23B5AF"/>
<path fill-rule="evenodd" clip-rule="evenodd" d="M123.643 40.3008V50.8649L130.47 57.4648V46.9007L123.643 40.3008Z" fill="#08566B"/>
<path fill-rule="evenodd" clip-rule="evenodd" d="M141.325 53.7172L141.336 43.1531L130.469 46.9013V57.4654L141.325 53.7172Z" fill="#23B5AF"/>
<path fill-rule="evenodd" clip-rule="evenodd" d="M153.692 33.7227V44.2868L140.093 42.1696V31.6055L153.692 33.7227Z" fill="#08566B"/>
<path fill-rule="evenodd" clip-rule="evenodd" d="M156.987 26.6699V37.234L153.693 44.2875V33.7235L156.987 26.6699Z" fill="#23B5AF"/>
<path fill-rule="evenodd" clip-rule="evenodd" d="M153.12 15.7384V27.3395L139.564 25.9568L139.143 18.0392L153.12 15.7384Z" fill="#08566B"/>
<path fill-rule="evenodd" clip-rule="evenodd" d="M86.4091 5.46521L86.3983 16.0293L89.7576 19.0538L96.8435 10.5636L86.4091 5.46521Z" fill="#08566B"/>
<path fill-rule="evenodd" clip-rule="evenodd" d="M131.495 2.0412V14.258L123.189 10.2937L131.495 2.0412Z" fill="#08566B"/>
<path fill-rule="evenodd" clip-rule="evenodd" d="M70.4332 22.122V32.6861L90.2436 35.3217L90.7837 25.4165L84.7779 20.2533L70.4332 22.122Z" fill="#08566B"/>
<path fill-rule="evenodd" clip-rule="evenodd" d="M86.4095 5.46568L97.0276 1.49064L104.578 8.23092C108.175 7.56121 111.912 7.32357 115.585 7.4748L119.355 0L131.507 2.04153L127.726 9.53793C130.491 10.4129 133.041 11.5687 135.244 12.9621L147.158 9.28949L153.121 15.7381L141.552 19.3135C142.47 20.9986 142.913 22.7484 142.892 24.4767L156.999 26.6803L153.693 33.7338L140.094 31.6167C138.679 33.3557 136.746 34.9652 134.315 36.3694L141.336 43.1637L130.47 46.9119L123.654 40.3121C120.467 40.9926 117.14 41.3274 113.835 41.349L110.195 49.5259L97.9349 47.7112L101.435 39.8476C98.475 39.0807 95.7098 38.0113 93.2794 36.6719L81.9376 41.2734L74.668 35.2892L86.2151 30.6013C84.746 28.4518 84.0763 26.1834 84.1843 23.9366L70.4337 22.1219L73.2638 15.0036L87.2196 16.8507C88.7859 15.0252 90.9354 13.3509 93.6251 11.9143L86.4095 5.46568Z" fill="#B3E9E6"/>
<path d="M113.532 33.3665C122.128 33.3665 129.097 29.3429 129.097 24.3795C129.097 19.4161 122.128 15.3925 113.532 15.3925C104.935 15.3925 97.9665 19.4161 97.9665 24.3795C97.9665 29.3429 104.935 33.3665 113.532 33.3665Z" fill="#08566B"/>
</svg>
