<svg viewBox="0 0 180 126" fill="none" xmlns="http://www.w3.org/2000/svg">
<path d="M84.3826 65.9169L143.467 100.337L179.999 79.1011L120.919 45.3423L84.3826 65.9169Z" fill="#B3E9E6"/>
<path d="M84.3826 69.412L143.463 103.795V100.296L84.3826 65.9169V69.412Z" fill="#23B5AF"/>
<path d="M179.999 82.6003L143.467 103.824V100.329L179.999 79.1011V82.6003Z" fill="#23B5AF"/>
<path d="M117.282 2.13544L176.367 35.8942L180 33.7587L120.915 0L117.282 2.13544Z" fill="#23B5AF"/>
<path d="M117.282 47.4818L176.363 81.2038V35.8574L117.282 2.13538V47.4818Z" fill="#B3E9E6"/>
<path d="M179.999 79.1054L176.366 81.2326L176.362 35.8821L179.999 33.7589V79.1054Z" fill="#23B5AF"/>
<path d="M119.228 45.2117L173.759 76.7819V37.1068L119.228 5.53656V45.2117Z" fill="#08566B"/>
<path d="M108.42 78.5172L119.275 84.7193L125.987 80.82L115.132 74.6138L108.42 78.5172Z" fill="#23B5AF"/>
<path d="M101.121 64.6716L142.084 88.3861L163.265 76.1246L122.301 52.4102L101.121 64.6716Z" fill="#23B5AF"/>
<path d="M109.544 88.089L50.4592 122.513L13.9275 101.277L73.0121 67.5186L109.544 88.089Z" fill="#FFF4D9"/>
<path d="M109.545 91.588L50.4644 125.971V122.472L109.545 88.0889V91.588Z" fill="#F8A327"/>
<path d="M13.9275 104.776L50.4592 126L50.4633 122.501L13.9275 101.277V104.776Z" fill="#F8A327"/>
<path d="M76.6453 24.3114L17.5648 58.0701L13.9275 55.9347L73.0121 22.176L76.6453 24.3114Z" fill="#F8A327"/>
<path d="M76.6459 69.6579L17.5654 103.376V58.0294L76.6459 24.3115V69.6579Z" fill="#FFF4D9"/>
<path d="M13.9275 101.277L17.5607 103.405L17.5648 58.0581L13.9316 55.9308L13.9275 101.277Z" fill="#F8A327"/>
<path d="M74.6998 67.3877L20.1689 98.9579V59.2828L74.6998 27.7126V67.3877Z" fill="#CE9489"/>
<path d="M85.5095 100.693L74.6546 106.895L67.9421 102.992L78.797 96.7899L85.5095 100.693Z" fill="#F8B655"/>
<path d="M92.809 86.8476L51.8457 110.562L30.6655 98.3006L71.6288 74.5862L92.809 86.8476Z" fill="#F8B655"/>
<path d="M45.2466 55.1635L3.20261 79.5068L0.000244141 77.6616L42.0442 53.3118L45.2466 55.1635Z" fill="#A9DED9"/>
<path d="M45.336 69.7954L3.28559 94.1192L3.20166 79.4874L45.2456 55.1635L45.336 69.7954Z" fill="#6ED9E3"/>
<path d="M0.083933 92.2935L3.2863 94.1322L3.20237 79.5004L0 77.6617L0.083933 92.2935Z" fill="#22B4AE"/>
<path d="M45.3364 69.7955V75.3245L40.5522 72.56L45.3364 69.7955Z" fill="#6ED9E3"/>
</svg>
