<svg viewBox="0 0 55 81" fill="none" xmlns="http://www.w3.org/2000/svg">
<path d="M0.969727 4.98801L46.7527 31.4616L54.7647 26.9045L8.98174 0.430908L0.969727 4.98801Z" fill="#22B4AE"/>
<path d="M0.816406 53.9645L46.5923 80.3957L46.7407 31.4192L0.964771 4.98804L0.816406 53.9645Z" fill="#A9DED9"/>
<path d="M54.607 75.8809L46.595 80.4309L46.7504 31.4545L54.7624 26.9044L54.607 75.8809Z" fill="#1696B3"/>
<path d="M0.816406 53.9504V64.4L9.87408 59.1787L0.816406 53.9504Z" fill="#A9DED9"/>
<path d="M33.3689 59.3029C38.6642 56.2457 38.6644 46.3324 33.3693 37.1611C28.0742 27.9898 19.489 23.0333 14.1937 26.0906C8.89842 29.1478 8.89822 39.0611 14.1933 48.2324C19.4884 57.4037 28.0736 62.3602 33.3689 59.3029Z" fill="#F9DFA0"/>
<path d="M19.3578 40.2544C19.9525 39.9111 19.9539 38.7999 19.3608 37.7726C18.7677 36.7453 17.8047 36.1909 17.21 36.5343C16.6152 36.8776 16.6139 37.9888 17.207 39.0161C17.8001 40.0434 18.763 40.5978 19.3578 40.2544Z" fill="#23B5AF"/>
<path d="M29.9991 46.3947C30.5939 46.0513 30.5952 44.9402 30.0021 43.9129C29.409 42.8856 28.446 42.3311 27.8513 42.6745C27.2565 43.0179 27.2552 44.1291 27.8483 45.1564C28.4414 46.1836 29.4044 46.7381 29.9991 46.3947Z" fill="#23B5AF"/>
<path d="M23.7795 51.082C19.2294 48.4537 16.4033 43.2113 16.2832 42.9852L16.8555 42.7238C16.8555 42.7732 19.5898 47.7684 23.7795 50.1847C27.9692 52.601 30.6964 50.757 30.6964 50.757L31.2757 51.6825C31.1556 51.732 28.3224 53.7032 23.7795 51.082Z" fill="#23B5AF"/>
</svg>