<svg height='381' width='381' viewBox="0 0 151 381" xmlns="http://www.w3.org/2000/svg">
  <path d="M123.77 137.417L102.949 150.498V113.871L123.77 96.8433V137.417Z" fill="#11706C"/>
  <path d="M102.948 113.871L60.0422 88.1669V57.6006L123.791 96.8441L102.948 113.871Z" fill="#65E2DD"/>
  <path d="M123.77 137.418L150.673 154.445L129.853 167.526L102.949 150.499L123.77 137.418Z" fill="#25B5AF"/>
  <path d="M60.0422 215.991L90.6521 235.569L120.085 217.299L60.0422 179.298V215.991Z" fill="#65E2DD"/>
  <path d="M90.6524 235.57V268.316L29.4326 306.252V0L0 18.3572V362.544L120.063 289.224V217.3L90.6524 235.57Z" fill="#D6FFFD"/>
  <path d="M0 361.215L30.6099 380.88L150.673 307.561L120.063 287.982L0 361.215Z" fill="#11706C"/>
  <path d="M150.673 307.56V200.272L60.0423 143.98V57.6007L123.791 96.8441V137.418L151 154.837L150.695 75.9579L29.4324 0V307.56L60.0423 287.284V179.299L120.085 217.3V287.982L150.673 307.56Z" fill="#3CCCC6"/>
</svg>