<svg width="54" height="80" viewBox="0 0 55 80" fill="none" xmlns="http://www.w3.org/2000/svg">
<path d="M0.506836 4.56416L46.2827 31.0306L54.2947 26.4735L8.51178 0L0.506836 4.56416Z" fill="#1696B3"/>
<path d="M0.351562 53.5406L46.1274 79.9718L46.2829 30.9954L0.506998 4.56421L0.351562 53.5406Z" fill="#A9DED9"/>
<path d="M54.1463 75.4501L46.1343 80.0001L46.2826 31.0237L54.2947 26.4736L54.1463 75.4501Z" fill="#22B4AE"/>
<path d="M0.351562 53.5264V63.9759L9.40923 58.7476L0.351562 53.5264Z" fill="#A9DED9"/>
<path d="M19.863 46.368V44.5405C19.863 42.9599 20.1485 41.7652 20.7194 40.9564C21.2903 40.1477 22.3346 39.5635 23.8524 39.204C25.3144 38.8917 26.2752 38.4936 26.7347 38.0097C27.2081 37.5345 27.4449 36.8195 27.4449 35.8646C27.4449 34.7944 27.1107 33.7686 26.4423 32.7871C25.7739 31.8056 24.841 30.937 23.6435 30.1815C21.5548 28.8636 19.1738 28.168 16.5003 28.0947L14.2236 21.2497C17.3288 21.1508 20.6219 22.1996 24.103 24.396C26.9714 26.2059 29.2481 28.4573 30.9329 31.1503C32.6317 33.8522 33.4811 36.5614 33.4811 39.278C33.4811 41.0891 33.133 42.4336 32.4368 43.3114C31.7405 44.1893 30.4177 44.8365 28.4683 45.2529C27.1316 45.5785 26.2822 45.9316 25.9201 46.3124C25.572 46.7019 25.398 47.3906 25.398 48.3785V49.8603L19.863 46.368ZM19.1946 54.3925C19.1946 53.0095 19.5079 52.1617 20.1345 51.8491C20.7611 51.5365 21.6732 51.758 22.8707 52.5135C24.0264 53.2427 24.9176 54.1672 25.5442 55.287C26.1847 56.4156 26.505 57.6549 26.505 59.005C26.505 60.3057 26.1847 61.1326 25.5442 61.4859C24.9037 61.8226 24.0125 61.6308 22.8707 60.9104C21.701 60.1724 20.796 59.2391 20.1554 58.1105C19.5149 56.9655 19.1946 55.7261 19.1946 54.3925Z" fill="#CE9489"/>
</svg>
