<svg width="37" height="29" viewBox="0 0 37 29" fill="none" xmlns="http://www.w3.org/2000/svg">
<path opacity="0.2" d="M30.2812 0.441978C32.3079 0.441978 33.9079 1.18864 35.0812 2.68198C36.2545 4.22865 36.8412 6.36198 36.8412 9.08198C36.8412 11.6953 36.4412 14.042 35.6412 16.122C34.7879 18.2553 33.6945 20.122 32.3612 21.722C30.9745 23.322 29.3745 24.6553 27.5612 25.722C25.7479 26.842 23.8279 27.6953 21.8012 28.282L19.8812 22.842C21.4812 22.3086 22.8945 21.6153 24.1212 20.762C25.2945 19.9086 26.3079 19.0286 27.1612 18.122C27.9612 17.2153 28.5745 16.3353 29.0012 15.482C29.4279 14.6286 29.6412 13.9353 29.6412 13.402H29.1612C27.2945 13.402 25.7745 12.8953 24.6012 11.882C23.3745 10.922 22.7612 9.56198 22.7612 7.80198C22.7612 5.88198 23.4279 4.17531 24.7612 2.68198C26.0945 1.18864 27.9345 0.441978 30.2812 0.441978ZM11.0812 0.441978C13.1079 0.441978 14.7079 1.18864 15.8812 2.68198C17.0545 4.22865 17.6412 6.36198 17.6412 9.08198C17.6412 11.6953 17.2412 14.042 16.4412 16.122C15.5879 18.2553 14.4945 20.122 13.1612 21.722C11.7745 23.322 10.1745 24.6553 8.36119 25.722C6.54785 26.842 4.62785 27.6953 2.60118 28.282L0.681183 22.842C2.28119 22.3086 3.69452 21.6153 4.92118 20.762C6.09452 19.9086 7.10785 19.0286 7.96119 18.122C8.76118 17.2153 9.37452 16.3353 9.80119 15.482C10.2279 14.6286 10.4412 13.9353 10.4412 13.402H9.96119C8.09452 13.402 6.57452 12.8953 5.40118 11.882C4.17452 10.922 3.56119 9.56198 3.56119 7.80198C3.56119 5.88198 4.22786 4.17531 5.56119 2.68198C6.89452 1.18864 8.73452 0.441978 11.0812 0.441978Z" fill="#69D6CB"/>
</svg>
