<svg width="37" height="29" viewBox="0 0 37 29" fill="none" xmlns="http://www.w3.org/2000/svg">
<path opacity="0.2" d="M6.92011 28.08C4.89344 28.08 3.29344 27.3333 2.12011 25.84C0.946774 24.2933 0.360107 22.16 0.360107 19.44C0.360107 16.8267 0.760107 14.48 1.56011 12.4C2.41344 10.2667 3.50677 8.39999 4.84011 6.79999C6.22677 5.19999 7.82677 3.86666 9.64011 2.79999C11.4534 1.67999 13.3734 0.826659 15.4001 0.23999L17.3201 5.67999C15.7201 6.21332 14.3068 6.90666 13.0801 7.75999C11.9068 8.61333 10.8934 9.49333 10.0401 10.4C9.24011 11.3067 8.62677 12.1867 8.20011 13.04C7.77344 13.8933 7.56011 14.5867 7.56011 15.12H8.04011C9.90677 15.12 11.4268 15.6267 12.6001 16.64C13.8268 17.6 14.4401 18.96 14.4401 20.72C14.4401 22.64 13.7734 24.3467 12.4401 25.84C11.1068 27.3333 9.26677 28.08 6.92011 28.08ZM26.1201 28.08C24.0934 28.08 22.4934 27.3333 21.3201 25.84C20.1468 24.2933 19.5601 22.16 19.5601 19.44C19.5601 16.8267 19.9601 14.48 20.7601 12.4C21.6134 10.2667 22.7068 8.39999 24.0401 6.79999C25.4268 5.19999 27.0268 3.86666 28.8401 2.79999C30.6534 1.67999 32.5734 0.826659 34.6001 0.23999L36.5201 5.67999C34.9201 6.21332 33.5068 6.90666 32.2801 7.75999C31.1068 8.61333 30.0934 9.49333 29.2401 10.4C28.4401 11.3067 27.8268 12.1867 27.4001 13.04C26.9734 13.8933 26.7601 14.5867 26.7601 15.12H27.2401C29.1068 15.12 30.6268 15.6267 31.8001 16.64C33.0268 17.6 33.6401 18.96 33.6401 20.72C33.6401 22.64 32.9734 24.3467 31.6401 25.84C30.3068 27.3333 28.4668 28.08 26.1201 28.08Z" fill="#69D6CB"/>
</svg>
