<svg viewBox="0 0 358 473" fill="none" xmlns="http://www.w3.org/2000/svg">
<path d="M309.082 223.262L303.245 226.769L297.238 223.245L302.995 219.755L309.082 223.262Z" fill="#AADCD8"/>
<path d="M309.082 318.931L303.245 322.305V226.734L309.082 223.262V318.931Z" fill="#78CDDA"/>
<path d="M297.238 318.815L303.245 322.305V226.734L297.238 223.245V318.815Z" fill="#22B4AE"/>
<path d="M229.33 177.449L223.484 180.982L217.478 177.449L223.333 173.915L229.33 177.449Z" fill="#AADCD8"/>
<path d="M229.322 273.135L223.494 276.517L223.485 180.938L229.322 177.564V273.135Z" fill="#78CDDA"/>
<path d="M217.486 273.028L223.484 276.518V180.938L217.486 177.449V273.028Z" fill="#22B4AE"/>
<path d="M92.2095 355.141L86.3638 358.674L80.3574 355.141L86.2031 351.607L92.2095 355.141Z" fill="#AADCD8"/>
<path d="M92.201 450.836L86.3643 454.21V358.639L92.201 355.256V450.836Z" fill="#78CDDA"/>
<path d="M80.3574 450.721L86.3638 454.21V358.639L80.3663 355.15L80.3574 450.721Z" fill="#22B4AE"/>
<path d="M12.459 309.354L6.61329 312.887L0.606934 309.354L6.45264 305.82L12.459 309.354Z" fill="#AADCD8"/>
<path d="M12.4506 405.04L6.61377 408.414V312.843L12.4506 309.469V405.04Z" fill="#78CDDA"/>
<path d="M0.606934 404.924L6.61329 408.414V312.843L0.606934 309.354V404.924Z" fill="#22B4AE"/>
<path d="M309.082 223.262L86.1774 351.732L0.606934 302.437L223.511 173.977L309.082 223.262Z" fill="#AADCD8"/>
<path d="M309.083 233.107L86.1875 361.469V351.616L309.083 223.262V233.107Z" fill="#78CDDA"/>
<path d="M0.606934 312.291L86.1774 361.55V351.696L0.606934 302.438V312.291Z" fill="#22B4AE"/>
<path d="M214.007 255.297L136.486 299.767L109.025 283.941L186.545 239.48L214.007 255.297Z" fill="#C4877E"/>
<path d="M214.006 264.813L136.485 309.247V299.732L214.006 255.297V264.813Z" fill="#D8B4AB"/>
<path d="M109.025 293.465L136.486 309.274V299.749L109.025 283.941V293.465Z" fill="#D8B4AB"/>
<path d="M184.609 245.435L180.638 243.147V240.646L184.609 242.934V245.435Z" fill="#A09ACB"/>
<path d="M184.607 245.435L188.579 243.147V240.646L184.607 242.934V245.435Z" fill="#C2BEDF"/>
<path d="M188.581 240.646L184.609 242.934L180.638 240.646L184.609 238.359L188.581 240.646Z" fill="#F9DFA0"/>
<path d="M189.973 248.497L186.001 246.209V243.708L189.973 245.996V248.497Z" fill="#A09ACB"/>
<path d="M189.972 248.497L193.944 246.209V243.708L189.972 245.996V248.497Z" fill="#C2BEDF"/>
<path d="M193.944 243.708L189.973 245.996L186.001 243.708L189.973 241.421L193.944 243.708Z" fill="#F9DFA0"/>
<path d="M195.335 251.594L191.354 249.307V246.806L195.335 249.093V251.594Z" fill="#A09ACB"/>
<path d="M195.336 251.594L199.307 249.307V246.806L195.336 249.093V251.594Z" fill="#C2BEDF"/>
<path d="M199.306 246.806L195.335 249.093L191.354 246.806L195.335 244.509L199.306 246.806Z" fill="#F9DFA0"/>
<path d="M200.673 254.674L196.701 252.387V249.885L200.673 252.173V254.674Z" fill="#A09ACB"/>
<path d="M200.672 254.674L204.644 252.387V249.885L200.672 252.173V254.674Z" fill="#C2BEDF"/>
<path d="M204.644 249.877L200.673 252.164L196.701 249.877L200.673 247.589L204.644 249.877Z" fill="#F9DFA0"/>
<path d="M206.223 257.87L202.251 255.582V253.081L206.223 255.369V257.87Z" fill="#A09ACB"/>
<path d="M206.224 257.87L210.205 255.582V253.081L206.224 255.369V257.87Z" fill="#C2BEDF"/>
<path d="M210.203 253.081L206.223 255.368L202.251 253.081L206.223 250.784L210.203 253.081Z" fill="#F9DFA0"/>
<path d="M179.166 248.604L175.194 246.316V243.815L179.166 246.103V248.604Z" fill="#A09ACB"/>
<path d="M179.164 248.604L183.144 246.316L183.135 243.815L179.164 246.103V248.604Z" fill="#C2BEDF"/>
<path d="M183.137 243.815L179.166 246.103L175.194 243.815L179.166 241.519L183.137 243.815Z" fill="#F9DFA0"/>
<path d="M184.528 251.666L180.556 249.378V246.877L184.528 249.165V251.666Z" fill="#A09ACB"/>
<path d="M184.529 251.666L188.509 249.378L188.501 246.877L184.529 249.165V251.666Z" fill="#C2BEDF"/>
<path d="M188.499 246.877L184.528 249.165L180.556 246.877L184.528 244.581L188.499 246.877Z" fill="#F9DFA0"/>
<path d="M189.893 254.763L185.921 252.476V249.975L189.893 252.262V254.763Z" fill="#A09ACB"/>
<path d="M189.891 254.763L193.862 252.476V249.975L189.891 252.262V254.763Z" fill="#C2BEDF"/>
<path d="M193.864 249.966L189.893 252.262L185.921 249.966L189.893 247.678L193.864 249.966Z" fill="#F9DFA0"/>
<path d="M195.229 257.843L191.258 255.555V253.054L195.229 255.342V257.843Z" fill="#A09ACB"/>
<path d="M195.229 257.843L199.21 255.556V253.045L195.229 255.333V257.843Z" fill="#C2BEDF"/>
<path d="M199.21 253.045L195.229 255.333L191.258 253.045L195.229 250.758L199.21 253.045Z" fill="#F9DFA0"/>
<path d="M200.788 261.039L196.816 258.751V256.25L200.788 258.537V261.039Z" fill="#A09ACB"/>
<path d="M200.789 261.039L204.761 258.751V256.25L200.789 258.537V261.039Z" fill="#C2BEDF"/>
<path d="M204.759 256.241L200.788 258.537L196.816 256.241L200.788 253.953L204.759 256.241Z" fill="#F9DFA0"/>
<path d="M173.791 251.71L169.819 249.414V246.913L173.791 249.2V251.71Z" fill="#A09ACB"/>
<path d="M173.792 251.71L177.764 249.414V246.913L173.792 249.2V251.71Z" fill="#C2BEDF"/>
<path d="M177.762 246.913L173.791 249.2L169.819 246.913L173.791 244.625L177.762 246.913Z" fill="#F9DFA0"/>
<path d="M179.154 254.763L175.183 252.476V249.975L179.154 252.262V254.763Z" fill="#A09ACB"/>
<path d="M179.156 254.763L183.127 252.476V249.975L179.156 252.262V254.763Z" fill="#C2BEDF"/>
<path d="M179.154 247.687L183.126 249.974L179.154 252.262L175.183 249.974" fill="#F9DFA0"/>
<path d="M184.518 257.861L180.538 255.573L180.547 253.072L184.518 255.36V257.861Z" fill="#A09ACB"/>
<path d="M184.519 257.861L188.491 255.573V253.072L184.519 255.36V257.861Z" fill="#C2BEDF"/>
<path d="M188.492 253.072L184.521 255.36L180.549 253.072L184.521 250.784L188.492 253.072Z" fill="#F9DFA0"/>
<path d="M189.856 260.941L185.884 258.653V256.152L189.856 258.439V260.941Z" fill="#A09ACB"/>
<path d="M189.856 260.941L193.836 258.653V256.152L189.856 258.439V260.941Z" fill="#C2BEDF"/>
<path d="M193.836 256.143L189.856 258.44L185.884 256.143L189.856 253.855L193.836 256.143Z" fill="#F9DFA0"/>
<path d="M195.417 264.136L191.436 261.849V259.347L195.417 261.635V264.136Z" fill="#A09ACB"/>
<path d="M195.416 264.136L199.387 261.849V259.347L195.416 261.635V264.136Z" fill="#C2BEDF"/>
<path d="M199.388 259.347L195.417 261.635L191.436 259.347L195.417 257.06L199.388 259.347Z" fill="#F9DFA0"/>
<path d="M168.348 254.87L164.376 252.583V250.081L168.348 252.369V254.87Z" fill="#A09ACB"/>
<path d="M168.356 254.87L172.328 252.583V250.081L168.347 252.369L168.356 254.87Z" fill="#C2BEDF"/>
<path d="M172.328 250.081L168.347 252.369L164.376 250.081L168.347 247.794L172.328 250.081Z" fill="#F9DFA0"/>
<path d="M173.711 257.932L169.739 255.644V253.143L173.72 255.431L173.711 257.932Z" fill="#A09ACB"/>
<path d="M173.721 257.932L177.692 255.644V253.143L173.721 255.431V257.932Z" fill="#C2BEDF"/>
<path d="M177.691 253.143L173.72 255.431L169.739 253.143L173.72 250.856L177.691 253.143Z" fill="#F9DFA0"/>
<path d="M179.074 261.03L175.103 258.742V256.241L179.074 258.529V261.03Z" fill="#A09ACB"/>
<path d="M179.076 261.03L183.047 258.742V256.241L179.076 258.529V261.03Z" fill="#C2BEDF"/>
<path d="M183.046 256.241L179.074 258.528L175.103 256.241L179.074 253.953L183.046 256.241Z" fill="#F9DFA0"/>
<path d="M184.421 264.109L180.449 261.822V259.321L184.421 261.608V264.109Z" fill="#A09ACB"/>
<path d="M184.422 264.109L188.394 261.822V259.321L184.422 261.608V264.109Z" fill="#C2BEDF"/>
<path d="M188.392 259.312L184.421 261.599L180.449 259.312L184.421 257.024L188.392 259.312Z" fill="#F9DFA0"/>
<path d="M189.973 267.305L186.001 265.017V262.516L189.973 264.804V267.305Z" fill="#A09ACB"/>
<path d="M189.972 267.305L193.944 265.017V262.516L189.972 264.804V267.305Z" fill="#C2BEDF"/>
<path d="M193.944 262.516L189.973 264.804L186.001 262.516L189.973 260.229L193.944 262.516Z" fill="#F9DFA0"/>
<path d="M162.582 258.208L158.611 255.92V253.419L162.582 255.707V258.208Z" fill="#A09ACB"/>
<path d="M162.582 258.208L166.554 255.92V253.419L162.582 255.707V258.208Z" fill="#C2BEDF"/>
<path d="M166.554 253.419L162.582 255.707L158.611 253.419L162.582 251.132L166.554 253.419Z" fill="#F9DFA0"/>
<path d="M167.946 261.27L163.974 258.983V256.481L167.946 258.769V261.27Z" fill="#A09ACB"/>
<path d="M167.945 261.27L171.917 258.983V256.481L167.945 258.769V261.27Z" fill="#C2BEDF"/>
<path d="M171.917 256.481L167.946 258.769L163.974 256.481L167.946 254.194L171.917 256.481Z" fill="#F9DFA0"/>
<path d="M173.31 264.368L169.329 262.08L169.338 259.579L173.31 261.866V264.368Z" fill="#A09ACB"/>
<path d="M173.309 264.368L177.28 262.08V259.579L173.309 261.866V264.368Z" fill="#C2BEDF"/>
<path d="M177.282 259.579L173.311 261.866L169.339 259.579L173.311 257.291L177.282 259.579Z" fill="#F9DFA0"/>
<path d="M178.647 267.447L174.676 265.16V262.659L178.647 264.946V267.447Z" fill="#A09ACB"/>
<path d="M178.646 267.447L182.626 265.16L182.617 262.659L178.646 264.946V267.447Z" fill="#C2BEDF"/>
<path d="M182.619 262.65L178.647 264.946L174.676 262.65L178.647 260.362L182.619 262.65Z" fill="#F9DFA0"/>
<path d="M156.825 261.555L152.854 259.267V256.766L156.825 259.054V261.555Z" fill="#A09ACB"/>
<path d="M156.827 261.555L160.807 259.267V256.766L156.827 259.054V261.555Z" fill="#C2BEDF"/>
<path d="M160.806 256.757L156.825 259.054L152.854 256.757L156.825 254.47L160.806 256.757Z" fill="#F9DFA0"/>
<path d="M162.189 264.617L158.217 262.329V259.828L162.189 262.116V264.617Z" fill="#A09ACB"/>
<path d="M162.19 264.617L166.171 262.329V259.828L162.19 262.116V264.617Z" fill="#C2BEDF"/>
<path d="M166.169 259.819L162.189 262.115L158.217 259.819L162.189 257.531L166.169 259.819Z" fill="#F9DFA0"/>
<path d="M167.552 267.715L163.581 265.427V262.926L167.552 265.213V267.715Z" fill="#A09ACB"/>
<path d="M167.554 267.715L171.525 265.427V262.926L167.554 265.213V267.715Z" fill="#C2BEDF"/>
<path d="M171.524 262.917L167.552 265.204L163.581 262.917L167.552 260.629L171.524 262.917Z" fill="#F9DFA0"/>
<path d="M172.899 270.794L168.919 268.506L168.928 265.996L172.899 268.293V270.794Z" fill="#A09ACB"/>
<path d="M172.899 270.794L176.87 268.506V265.996L172.899 268.284V270.794Z" fill="#C2BEDF"/>
<path d="M176.87 265.996L172.899 268.284L168.927 265.996L172.899 263.709L176.87 265.996Z" fill="#F9DFA0"/>
<path d="M151.399 264.697L147.427 262.409V259.908L151.399 262.196V264.697Z" fill="#A09ACB"/>
<path d="M151.4 264.697L155.372 262.409V259.908L151.4 262.196V264.697Z" fill="#C2BEDF"/>
<path d="M155.37 259.908L151.399 262.196L147.427 259.908L151.399 257.621L155.37 259.908Z" fill="#F9DFA0"/>
<path d="M156.763 267.759L152.782 265.471L152.791 262.97L156.763 265.258V267.759Z" fill="#A09ACB"/>
<path d="M156.763 267.759L160.735 265.471V262.97L156.763 265.258V267.759Z" fill="#C2BEDF"/>
<path d="M160.734 262.97L156.762 265.258L152.791 262.97L156.762 260.683L160.734 262.97Z" fill="#F9DFA0"/>
<path d="M162.126 270.856L158.146 268.569V266.068L162.126 268.355V270.856Z" fill="#A09ACB"/>
<path d="M162.127 270.856L166.098 268.569V266.068L162.127 268.355V270.856Z" fill="#C2BEDF"/>
<path d="M166.097 266.068L162.126 268.355L158.146 266.068L162.126 263.771L166.097 266.068Z" fill="#F9DFA0"/>
<path d="M167.462 273.936L163.491 271.649V269.147L167.462 271.435V273.936Z" fill="#A09ACB"/>
<path d="M167.465 273.936L171.437 271.649V269.147L167.465 271.426V273.936Z" fill="#C2BEDF"/>
<path d="M171.434 269.138L167.462 271.426L163.491 269.138L167.462 266.851L171.434 269.138Z" fill="#F9DFA0"/>
<path d="M145.697 267.919L141.725 265.632V263.13L145.697 265.418V267.919Z" fill="#A09ACB"/>
<path d="M145.697 267.919L149.668 265.632V263.13L145.697 265.418V267.919Z" fill="#C2BEDF"/>
<path d="M149.668 263.122L145.697 265.409L141.725 263.122L145.697 260.834L149.668 263.122Z" fill="#F9DFA0"/>
<path d="M151.06 270.981L147.089 268.693V266.192L151.06 268.48V270.981Z" fill="#A09ACB"/>
<path d="M151.06 270.981L155.031 268.693V266.183L151.06 268.471V270.981Z" fill="#C2BEDF"/>
<path d="M155.032 266.183L151.06 268.471L147.089 266.183L151.06 263.896L155.032 266.183Z" fill="#F9DFA0"/>
<path d="M156.424 274.079L152.444 271.791V269.281L156.424 271.569V274.079Z" fill="#A09ACB"/>
<path d="M156.423 274.079L160.395 271.791V269.281L156.423 271.569V274.079Z" fill="#C2BEDF"/>
<path d="M160.396 269.281L156.424 271.569L152.444 269.281L156.424 266.993L160.396 269.281Z" fill="#F9DFA0"/>
<path d="M161.762 277.159L157.79 274.871V272.361L161.762 274.648V277.159Z" fill="#A09ACB"/>
<path d="M161.76 277.159L165.74 274.871V272.361L161.76 274.648V277.159Z" fill="#C2BEDF"/>
<path d="M165.733 272.361L161.762 274.648L157.79 272.361L161.762 270.073L165.733 272.361Z" fill="#F9DFA0"/>
<path d="M140.145 271.133L136.174 268.845V266.344L140.145 268.631V271.133Z" fill="#A09ACB"/>
<path d="M140.145 271.133L144.116 268.845V266.344L140.145 268.631V271.133Z" fill="#C2BEDF"/>
<path d="M144.117 266.344L140.145 268.631L136.174 266.344L140.145 264.047L144.117 266.344Z" fill="#F9DFA0"/>
<path d="M145.508 274.194L141.537 271.907V269.406L145.508 271.693V274.194Z" fill="#A09ACB"/>
<path d="M145.508 274.194L149.48 271.907V269.406L145.508 271.693V274.194Z" fill="#C2BEDF"/>
<path d="M149.48 269.397L145.508 271.693L141.537 269.397L145.508 267.109L149.48 269.397Z" fill="#F9DFA0"/>
<path d="M150.872 277.292L146.892 275.005V272.503L150.872 274.791V277.292Z" fill="#A09ACB"/>
<path d="M150.873 277.292L154.845 275.005V272.503L150.873 274.791V277.292Z" fill="#C2BEDF"/>
<path d="M154.844 272.494L150.872 274.782L146.892 272.494L150.872 270.207L154.844 272.494Z" fill="#F9DFA0"/>
<path d="M156.209 280.372L152.237 278.084V275.574L156.209 277.862V280.372Z" fill="#A09ACB"/>
<path d="M156.21 280.372L160.181 278.084V275.574L156.21 277.862V280.372Z" fill="#C2BEDF"/>
<path d="M160.18 275.574L156.209 277.862L152.237 275.574L156.209 273.286L160.18 275.574Z" fill="#F9DFA0"/>
<path d="M134.282 274.479L130.302 272.192L130.311 269.69L134.282 271.978V274.479Z" fill="#A09ACB"/>
<path d="M134.281 274.479L138.253 272.192V269.69L134.281 271.978V274.479Z" fill="#C2BEDF"/>
<path d="M138.253 269.69L134.282 271.978L130.31 269.69L134.282 267.403L138.253 269.69Z" fill="#F9DFA0"/>
<path d="M139.645 277.541L135.665 275.254V272.752L139.645 275.04V277.541Z" fill="#A09ACB"/>
<path d="M139.646 277.541L143.618 275.254V272.752L139.646 275.04V277.541Z" fill="#C2BEDF"/>
<path d="M143.617 272.752L139.645 275.04L135.665 272.752L139.645 270.465L143.617 272.752Z" fill="#F9DFA0"/>
<path d="M145 280.639L141.028 278.351V275.85L145 278.138V280.639Z" fill="#A09ACB"/>
<path d="M145.001 280.639L148.982 278.351V275.85L145.001 278.138V280.639Z" fill="#C2BEDF"/>
<path d="M148.98 275.85L145 278.138L141.028 275.85L145 273.553L148.98 275.85Z" fill="#F9DFA0"/>
<path d="M150.347 283.718L146.375 281.431V278.93L150.347 281.217V283.718Z" fill="#A09ACB"/>
<path d="M150.346 283.718L154.318 281.431V278.93L150.346 281.217V283.718Z" fill="#C2BEDF"/>
<path d="M154.318 278.921L150.347 281.208L146.375 278.921L150.347 276.633L154.318 278.921Z" fill="#F9DFA0"/>
<path d="M128.57 277.826L124.59 275.539V273.037L128.57 275.325V277.826Z" fill="#A09ACB"/>
<path d="M128.571 277.826L132.543 275.539V273.037L128.571 275.325V277.826Z" fill="#C2BEDF"/>
<path d="M132.542 273.028L128.57 275.316L124.59 273.028L128.57 270.741L132.542 273.028Z" fill="#F9DFA0"/>
<path d="M133.932 280.888L129.952 278.601V276.099L133.932 278.378V280.888Z" fill="#A09ACB"/>
<path d="M133.934 280.888L137.906 278.601V276.099L133.934 278.378V280.888Z" fill="#C2BEDF"/>
<path d="M137.903 276.09L133.932 278.378L129.952 276.09L133.932 273.803L137.903 276.09Z" fill="#F9DFA0"/>
<path d="M139.288 283.986L135.317 281.698V279.197L139.288 281.484V283.986Z" fill="#A09ACB"/>
<path d="M139.288 283.986L143.268 281.698V279.188L139.288 281.476V283.986Z" fill="#C2BEDF"/>
<path d="M143.269 279.188L139.288 281.476L135.317 279.188L139.288 276.9L143.269 279.188Z" fill="#F9DFA0"/>
<path d="M144.633 287.065L140.662 284.778V282.268L144.633 284.555V287.065Z" fill="#A09ACB"/>
<path d="M144.636 287.065L148.608 284.778V282.268L144.636 284.555V287.065Z" fill="#C2BEDF"/>
<path d="M148.605 282.268L144.633 284.555L140.662 282.268L144.633 279.98L148.605 282.268Z" fill="#F9DFA0"/>
<path d="M151.943 288.997L147.962 286.709V284.208L151.943 286.496V288.997Z" fill="#A09ACB"/>
<path d="M151.944 288.997L187.875 268.302V265.801L151.944 286.496V288.997Z" fill="#C2BEDF"/>
<path d="M187.875 265.801L151.944 286.487L147.972 284.199L183.894 263.513L187.875 265.801Z" fill="#F9DFA0"/>
<path d="M122.759 281.173L118.788 278.885V276.375L122.759 278.663V281.173Z" fill="#A09ACB"/>
<path d="M122.761 281.173L126.732 278.885V276.375L122.761 278.663V281.173Z" fill="#C2BEDF"/>
<path d="M126.731 276.375L122.759 278.663L118.788 276.375L122.759 274.087L126.731 276.375Z" fill="#F9DFA0"/>
<path d="M128.123 284.235L124.151 281.947V279.437L128.123 281.725V284.235Z" fill="#A09ACB"/>
<path d="M128.124 284.226L132.096 281.938V279.437L128.124 281.725V284.226Z" fill="#C2BEDF"/>
<path d="M132.094 279.437L128.123 281.725L124.151 279.437L128.123 277.15L132.094 279.437Z" fill="#F9DFA0"/>
<path d="M133.486 287.332L129.515 285.045V282.535L133.486 284.822V287.332Z" fill="#A09ACB"/>
<path d="M133.488 287.332L137.459 285.045V282.535L133.488 284.822V287.332Z" fill="#C2BEDF"/>
<path d="M137.458 282.535L133.486 284.822L129.515 282.535L133.486 280.247L137.458 282.535Z" fill="#F9DFA0"/>
<path d="M138.823 290.403L134.851 288.116V285.615L138.823 287.902V290.403Z" fill="#A09ACB"/>
<path d="M138.826 290.403L142.806 288.116V285.615L138.826 287.902V290.403Z" fill="#C2BEDF"/>
<path d="M142.794 285.614L138.823 287.902L134.851 285.614L138.823 283.327L142.794 285.614Z" fill="#F9DFA0"/>
<path d="M142.376 294.418L138.404 292.13V289.62L142.376 291.908V294.418Z" fill="#A09ACB"/>
<path d="M142.377 294.418L149.874 290.154V287.653L142.377 291.908V294.418Z" fill="#C2BEDF"/>
<path d="M149.873 287.644L142.376 291.907L138.404 289.62L145.901 285.356L149.873 287.644Z" fill="#F9DFA0"/>
<path d="M115.691 285.045L111.719 282.757V280.256L115.691 282.543V285.045Z" fill="#A09ACB"/>
<path d="M115.701 285.045L121.216 281.929V279.428L115.692 282.544L115.701 285.045Z" fill="#C2BEDF"/>
<path d="M121.215 279.428L115.691 282.544L111.719 280.256L117.234 277.141L121.215 279.428Z" fill="#F9DFA0"/>
<path d="M121.652 288.392L117.681 286.104V283.603L121.661 285.89L121.652 288.392Z" fill="#A09ACB"/>
<path d="M121.663 288.391L127.178 285.276V282.775L121.654 285.881L121.663 288.391Z" fill="#C2BEDF"/>
<path d="M127.177 282.775L121.652 285.881L117.681 283.594L123.196 280.479L127.177 282.775Z" fill="#F9DFA0"/>
<path d="M126.758 291.64L122.778 289.353V286.852L126.758 289.139V291.64Z" fill="#A09ACB"/>
<path d="M126.757 291.641L132.273 288.534V286.024L126.757 289.139V291.641Z" fill="#C2BEDF"/>
<path d="M132.274 286.024L126.758 289.139L122.778 286.851L128.302 283.736L132.274 286.024Z" fill="#F9DFA0"/>
<path d="M132.025 294.658L128.044 292.37V289.869L132.025 292.157V294.658Z" fill="#A09ACB"/>
<path d="M132.022 294.658L137.538 291.552V289.042L132.022 292.157V294.658Z" fill="#C2BEDF"/>
<path d="M137.531 289.041L132.025 292.157L128.044 289.869L133.56 286.754L137.531 289.041Z" fill="#F9DFA0"/>
<path d="M136.861 297.569L132.889 295.281V292.78L136.861 295.067V297.569Z" fill="#A09ACB"/>
<path d="M136.862 297.569L140.834 295.281V292.78L136.862 295.067V297.569Z" fill="#C2BEDF"/>
<path d="M140.832 292.78L136.861 295.067L132.889 292.78L136.861 290.492L140.832 292.78Z" fill="#F9DFA0"/>
<path d="M225.128 399.263L222.745 397.893C223.683 398.035 224.534 398.524 225.128 399.263Z" fill="#1696B3"/>
<path d="M165.563 234.157L113.514 264.136L95.4238 253.713L147.473 223.734" fill="#78CDDA"/>
<path d="M165.562 242.266L113.513 272.218V264.109L165.562 234.157V242.266Z" fill="#38A5BC"/>
<path d="M95.4238 261.822L113.514 272.236V264.127L95.4238 253.713V261.822Z" fill="#38A5BC"/>
<path d="M140.163 213.178L124.902 221.892L118.708 218.322L133.96 209.617L140.163 213.178Z" fill="#AADCD8"/>
<path d="M140.164 241.162L124.912 249.841V221.865L140.164 213.177V241.162Z" fill="#A4DAE3"/>
<path d="M118.708 246.307L124.902 249.859V221.883L118.708 218.322V246.307Z" fill="#38A5BC"/>
<path d="M124.902 221.883L140.163 213.177" stroke="#46BDC8" stroke-width="0.125744"/>
<path d="M56.6631 167.809V255.858L189.213 179.549V91.4819L56.6631 167.809Z" fill="#08566B" stroke="#064455" stroke-width="0.483631" stroke-linejoin="bevel"/>
<path d="M40.9998 258.528L183.903 176.265L194.372 182.362L51.5042 264.608L40.9998 258.528Z" fill="#1995B1"/>
<path d="M40.9915 258.671V158.827L51.5048 164.898V264.697L40.9915 258.671Z" fill="#1995B1"/>
<path d="M183.85 176.398V76.5815L194.355 82.661V182.424L183.85 176.398Z" fill="#1995B1"/>
<path d="M40.9915 158.828L183.903 76.5549L194.372 82.6611L51.5048 164.907L40.9915 158.828Z" fill="#22B4AE"/>
<path d="M194.372 182.193V82.6609L51.5048 164.898L51.6833 165.005L51.5048 165.103V264.697L194.372 182.424V182.193ZM56.6633 167.773L189.205 91.4819V179.522L56.6633 255.858V167.773Z" fill="#AADCD8"/>
<path opacity="0.01" d="M56.9766 167.827V255.867L189.536 179.558V91.491L56.9766 167.827Z" fill="white"/>
<path d="M90.3172 286.602H66.2203V310.484C66.2203 312.264 67.3895 314.044 69.7902 315.415C74.4936 318.13 82.1064 318.13 86.8008 315.415C89.1659 314.053 90.3707 312.264 90.3707 310.484L90.3172 286.602Z" fill="#F9DFA0"/>
<path fill-rule="evenodd" clip-rule="evenodd" d="M74.5485 317.16C69.7113 315.869 66.3645 313.421 66.3645 310.163V287.421C66.3645 287.297 66.3645 287.181 66.3645 287.056C66.3645 283.496 69.1579 285.178 74.5485 283.887V317.16Z" fill="#F6B554" fill-opacity="0.3"/>
<path d="M78.2792 292.975C84.958 292.975 90.3722 289.863 90.3722 286.024C90.3722 282.184 84.958 279.072 78.2792 279.072C71.6004 279.072 66.1862 282.184 66.1862 286.024C66.1862 289.863 71.6004 292.975 78.2792 292.975Z" fill="#C2BEDF"/>
<path d="M93.3976 298.361L86.1328 294.204C85.6636 294.073 85.1645 294.098 84.7106 294.275C84.2568 294.451 83.8726 294.77 83.6161 295.183C83.505 295.406 83.44 295.648 83.4249 295.896C83.4098 296.144 83.445 296.393 83.5283 296.627C83.6115 296.861 83.7413 297.076 83.9097 297.26C84.0781 297.443 84.2818 297.59 84.5085 297.693C85.5884 298.058 88.1677 299.678 90.0865 300.648C92.4783 301.868 91.9696 303.773 91.8715 306.701C91.6394 308.481 89.7117 307.885 87.2752 306.292C87.1163 306.143 86.927 306.03 86.7204 305.961C86.5137 305.891 86.2945 305.867 86.0777 305.89C85.8608 305.913 85.6515 305.982 85.4639 306.093C85.2763 306.204 85.1148 306.353 84.9905 306.532C84.3122 307.609 85.1779 308.606 86.0525 309.015C91.4609 311.882 92.4605 312.184 93.6832 311.045C94.9059 309.905 95.2896 305.215 95.37 302.473C95.3878 300.275 95.3432 299.518 93.3976 298.361Z" fill="#F8B454"/>
<path d="M78.3413 291.756C84.1428 291.756 88.8458 289.162 88.8458 285.962C88.8458 282.761 84.1428 280.167 78.3413 280.167C72.5399 280.167 67.8369 282.761 67.8369 285.962C67.8369 289.162 72.5399 291.756 78.3413 291.756Z" fill="#A09DF1"/>
<path d="M70.9612 290.056C75.0577 292.317 81.6709 292.317 85.812 290.056C86.7809 289.56 87.6164 288.84 88.2485 287.955C87.6215 286.878 86.6903 286.008 85.571 285.454C81.4657 283.193 74.8613 283.193 70.7203 285.454C69.7514 285.95 68.9159 286.67 68.2838 287.555C68.9082 288.635 69.8401 289.505 70.9612 290.056Z" fill="#E8B984"/>
<path d="M135.344 60.0256L40.3041 114.758L0 91.5354L95.0396 36.8027L135.344 60.0256Z" fill="#AADCD8"/>
<path d="M135.344 67.6269L40.3129 122.306V114.705L135.344 60.0254V67.6269Z" fill="#78CDDA"/>
<path d="M0 99.1368L40.3042 122.342V114.74L0 91.5442V99.1368Z" fill="#22B4AE"/>
<path d="M51.5046 71.5347L68.1761 61.9304V84.1386L51.5046 93.734V71.5347Z" fill="#FAE0A1"/>
<path d="M51.5041 71.5347L34.8326 61.9304V84.1386L51.5041 93.734V71.5347Z" fill="#F8B454"/>
<path fill-rule="evenodd" clip-rule="evenodd" d="M51.5032 52.335L34.8674 61.9125V61.9659L51.5032 71.5435L68.1567 61.9481L51.5032 52.335Z" fill="#A09DF1"/>
<path fill-rule="evenodd" clip-rule="evenodd" d="M51.5042 54.4446L38.7775 61.7791L51.5042 69.1492L64.2576 61.8058L51.522 54.4713" fill="#C3C0E7"/>
<path fill-rule="evenodd" clip-rule="evenodd" d="M50.8712 51.5161H52.2189V62.7493C52.2269 62.8242 52.2135 62.8998 52.1804 62.9675C52.1472 63.0352 52.0956 63.0923 52.0314 63.132C51.8886 63.2222 51.723 63.2701 51.554 63.2701C51.3849 63.2701 51.2193 63.2222 51.0765 63.132C51.0195 63.0993 50.9716 63.0528 50.9373 62.9968C50.903 62.9408 50.8833 62.8771 50.8801 62.8116L50.8712 51.5161Z" fill="#23B5AF"/>
<path d="M51.5151 51.9899C51.8848 51.9874 52.1831 51.7782 52.1814 51.5226C52.1797 51.267 51.8786 51.0617 51.5089 51.0642C51.1393 51.0666 50.841 51.2758 50.8427 51.5315C50.8444 51.7871 51.1454 51.9923 51.5151 51.9899Z" fill="#A9DED9"/>
<path d="M51.5139 52.1836C51.5139 49.184 53.4149 43.3805 61.1437 44.1727C61.4382 46.8964 59.93 52.1836 51.5139 52.1836Z" fill="#A9DED9"/>
<path d="M51.513 52.1836C51.513 49.184 49.6209 43.3805 41.8921 44.1727C41.5887 46.8964 43.1059 52.1836 51.513 52.1836Z" fill="#A9DED9"/>
<path d="M104.099 65.0904L82.4563 52.6199V16.2769L104.099 28.7473V65.0904Z" fill="#CE9489"/>
<path d="M104.1 65.0902L111.954 60.5684V24.2253L104.1 28.7471V65.0902Z" fill="#D8B4AB"/>
<path d="M91.1216 12.209L111.961 24.2254L104.089 28.7561L83.25 16.7396L91.1216 12.209Z" fill="#FAE0A1"/>
<path fill-rule="evenodd" clip-rule="evenodd" d="M104.045 27.8392L83.2328 15.8317L82.4563 16.2767L103.269 28.2843L104.09 28.756L111.953 24.2254L111.14 23.7447L90.5153 11.844L89.8014 12.2713L110.426 24.1631L104.045 27.8392Z" fill="#D8B4AB"/>
<path d="M93.7011 71.5435L72.0497 59.0731V22.73L93.7011 35.2004V71.5435Z" fill="#CE9489"/>
<path d="M93.7 71.5435L101.554 67.0218V30.6787L93.7 35.2005V71.5435Z" fill="#D8B4AB"/>
<path d="M80.7249 18.6621L101.555 30.6786L93.6836 35.2092L72.8533 23.1928L80.7249 18.6621Z" fill="#FAE0A1"/>
<path fill-rule="evenodd" clip-rule="evenodd" d="M93.6476 34.2925L72.8261 22.2849L72.0497 22.73L92.8622 34.7375L93.6833 35.2093L101.555 30.6786L100.734 30.198L80.1087 18.3062L79.3947 18.7334L100.02 30.6252L93.6476 34.2925Z" fill="#D8B4AB"/>
<path d="M306.099 383.352L307.822 380.317L304.787 378.536L304.716 378.492C304.147 378.255 303.528 378.167 302.916 378.235C302.303 378.304 301.719 378.527 301.217 378.884C299.741 379.841 298.513 381.132 297.632 382.653C296.751 384.173 296.243 385.88 296.148 387.633C296.148 389.253 296.719 390.393 297.647 390.918L300.789 392.698L302.574 389.502C304.355 387.863 305.586 385.715 306.099 383.352Z" fill="#C3C0E7"/>
<path d="M307.801 388.568C309.78 385.15 309.779 381.454 307.798 380.313C305.818 379.173 302.608 381.02 300.629 384.438C298.65 387.857 298.651 391.553 300.632 392.693C302.612 393.834 305.822 391.987 307.801 388.568Z" fill="#CE9489"/>
<path d="M308.35 386.642C309.306 384.982 309.303 383.191 308.342 382.64C307.382 382.09 305.828 382.988 304.872 384.648C303.915 386.307 303.919 388.099 304.879 388.65C305.84 389.2 307.394 388.301 308.35 386.642Z" fill="#374D4F"/>
<path d="M308.561 384.758L310.283 381.723L307.249 379.943H307.177C306.611 379.7 305.991 379.607 305.378 379.674C304.764 379.741 304.179 379.966 303.679 380.326C302.202 381.284 300.973 382.577 300.093 384.099C299.212 385.621 298.704 387.329 298.61 389.084C298.61 390.695 299.181 391.835 300.1 392.36L303.242 394.14L305.027 390.936C306.816 389.29 308.051 387.132 308.561 384.758Z" fill="#C3C0E7"/>
<path d="M312.829 379.819L312.783 379.765C312.8 379.788 312.816 379.812 312.829 379.837V379.819Z" fill="#59797A"/>
<path d="M309.963 377.584C310.272 377.698 310.57 377.838 310.856 378.002C308.964 376.64 305.563 375.003 300.012 374.869C300.012 374.869 292.123 376.89 292.426 386.262L299.405 390.286C299.28 384.402 306.349 376.204 309.963 377.584Z" fill="#38A5BC"/>
<path d="M301.993 388.764H302.065C302.065 388.764 305.251 378.43 310.99 383.61L312.578 382.72L313.533 382.168C313.495 381.361 313.252 380.577 312.828 379.889C312.815 379.864 312.8 379.841 312.783 379.818C312.307 379.067 311.643 378.454 310.856 378.038C310.57 377.874 310.272 377.734 309.963 377.619C306.393 376.267 299.254 384.464 299.414 390.312L301.993 388.764Z" fill="#08566B"/>
<path d="M310.368 389.949C312.347 386.515 312.338 382.806 310.349 381.665C308.359 380.525 305.142 382.384 303.163 385.819C301.184 389.253 301.192 392.962 303.182 394.102C305.172 395.243 308.389 393.383 310.368 389.949Z" fill="#A09DF1"/>
<path d="M308.675 389.222C309.631 387.571 309.631 385.785 308.675 385.235C307.719 384.684 306.168 385.577 305.212 387.229C304.256 388.88 304.256 390.666 305.212 391.216C306.168 391.767 307.719 390.874 308.675 389.222Z" fill="#C3C0E7"/>
<path d="M328.748 425.018L330.47 421.983L327.436 420.202H327.365C326.798 419.959 326.178 419.867 325.565 419.934C324.952 420.001 324.366 420.225 323.866 420.585C322.39 421.544 321.162 422.838 320.281 424.359C319.4 425.881 318.892 427.589 318.797 429.344C318.797 430.964 319.368 432.094 320.296 432.619L323.438 434.4L325.223 431.195C327.009 429.548 328.241 427.391 328.748 425.018Z" fill="#C3C0E7"/>
<path d="M330.461 430.234C332.44 426.816 332.439 423.12 330.458 421.979C328.477 420.839 325.267 422.686 323.288 426.104C321.309 429.523 321.311 433.219 323.291 434.359C325.272 435.5 328.482 433.653 330.461 430.234Z" fill="#CE9489"/>
<path d="M331.172 428.227C332.128 426.568 332.125 424.776 331.164 424.225C330.204 423.675 328.65 424.574 327.693 426.233C326.737 427.893 326.741 429.684 327.701 430.235C328.662 430.785 330.216 429.886 331.172 428.227Z" fill="#374D4F"/>
<path d="M331.213 426.424L332.936 423.389L329.901 421.609H329.83C329.262 421.364 328.64 421.271 328.025 421.338C327.411 421.405 326.824 421.63 326.322 421.992C324.847 422.951 323.62 424.245 322.741 425.767C321.862 427.289 321.355 428.996 321.262 430.75C321.262 432.37 321.833 433.501 322.753 434.026L325.885 435.806L327.67 432.602C329.465 430.959 330.703 428.8 331.213 426.424Z" fill="#C3C0E7"/>
<path d="M335.479 421.485L335.434 421.431L335.479 421.503V421.485Z" fill="#59797A"/>
<path d="M332.605 419.223C332.913 419.34 333.212 419.48 333.498 419.641C331.606 418.28 328.206 416.651 322.654 416.508C322.654 416.508 314.756 418.529 315.068 427.902L322.048 431.925C321.931 426.077 329 417.87 332.605 419.223Z" fill="#38A5BC"/>
<path d="M324.613 430.367H324.685C324.685 430.367 327.871 420.033 333.609 425.214L335.198 424.323L336.153 423.78C336.115 422.971 335.872 422.184 335.448 421.493L335.403 421.422C334.924 420.673 334.261 420.06 333.475 419.641C333.189 419.48 332.891 419.34 332.583 419.223C329.013 417.87 321.873 426.077 322.043 431.925L324.613 430.367Z" fill="#08566B"/>
<path d="M332.75 431.516C334.729 428.082 334.72 424.374 332.73 423.233C330.741 422.093 327.523 423.952 325.544 427.386C323.565 430.821 323.574 434.529 325.564 435.67C327.554 436.81 330.771 434.951 332.75 431.516Z" fill="#A09DF1"/>
<path d="M331.156 430.727C332.112 429.075 332.112 427.29 331.156 426.739C330.2 426.189 328.65 427.081 327.693 428.733C326.737 430.385 326.737 432.17 327.693 432.721C328.65 433.272 330.2 432.379 331.156 430.727Z" fill="#C3C0E7"/>
<path d="M281.816 457.809L283.538 454.783L280.504 453.003H280.441C279.875 452.76 279.255 452.667 278.641 452.734C278.028 452.801 277.443 453.026 276.943 453.385C275.468 454.346 274.24 455.639 273.359 457.161C272.479 458.683 271.97 460.39 271.874 462.144C271.874 463.764 272.445 464.894 273.373 465.42L276.505 467.2L278.29 463.995C280.078 462.346 281.309 460.185 281.816 457.809Z" fill="#C3C0E7"/>
<path d="M283.529 463.022C285.508 459.603 285.506 455.907 283.526 454.767C281.545 453.626 278.335 455.473 276.356 458.892C274.377 462.31 274.378 466.006 276.359 467.147C278.34 468.287 281.55 466.441 283.529 463.022Z" fill="#CE9489"/>
<path d="M284.366 461.199C285.322 459.54 285.319 457.748 284.358 457.198C283.397 456.647 281.844 457.546 280.887 459.206C279.931 460.865 279.935 462.657 280.895 463.207C281.856 463.758 283.41 462.859 284.366 461.199Z" fill="#374D4F"/>
<path d="M284.277 459.216L286 456.189L282.965 454.409H282.894C282.327 454.167 281.706 454.076 281.093 454.145C280.48 454.214 279.895 454.44 279.395 454.801C277.919 455.758 276.691 457.05 275.81 458.57C274.929 460.091 274.421 461.797 274.326 463.551C274.326 465.171 274.897 466.31 275.826 466.835L278.967 468.615L280.752 465.411C282.543 463.761 283.775 461.596 284.277 459.216Z" fill="#C3C0E7"/>
<path d="M285.679 452.015C285.986 452.131 286.285 452.271 286.571 452.433C284.679 451.08 281.279 449.442 275.736 449.3C275.736 449.3 267.838 451.329 268.15 460.702L275.13 464.717C274.996 458.869 282.064 450.662 285.679 452.015Z" fill="#38A5BC"/>
<path d="M277.666 463.203L277.737 463.159C277.737 463.159 280.923 452.825 286.662 458.005L288.251 457.115L289.206 456.572C289.167 455.763 288.925 454.976 288.501 454.285V454.213C288.022 453.465 287.358 452.852 286.573 452.433C286.287 452.271 285.988 452.131 285.68 452.015C282.066 450.662 274.971 458.869 275.131 464.717L277.666 463.203Z" fill="#08566B"/>
<path d="M285.917 464.34C287.896 460.906 287.887 457.197 285.897 456.057C283.908 454.916 280.69 456.776 278.711 460.21C276.732 463.645 276.741 467.353 278.731 468.494C280.721 469.634 283.938 467.775 285.917 464.34Z" fill="#A09DF1"/>
<path d="M284.393 463.679C285.349 462.028 285.349 460.242 284.393 459.692C283.437 459.141 281.887 460.034 280.931 461.686C279.974 463.337 279.974 465.123 280.93 465.673C281.887 466.224 283.437 465.331 284.393 463.679Z" fill="#C3C0E7"/>
<path d="M220.239 441.566C222.218 438.147 222.216 434.451 220.236 433.311C218.255 432.17 215.045 434.017 213.066 437.436C211.087 440.854 211.088 444.55 213.069 445.691C215.05 446.831 218.26 444.985 220.239 441.566Z" fill="#CE9489"/>
<path d="M221.005 439.996C221.962 438.336 221.958 436.545 220.997 435.994C220.037 435.443 218.483 436.342 217.527 438.002C216.571 439.661 216.574 441.453 217.535 442.003C218.495 442.554 220.049 441.655 221.005 439.996Z" fill="#374D4F"/>
<path d="M225.258 432.825C225.261 432.804 225.261 432.783 225.258 432.762C225.271 432.787 225.287 432.811 225.304 432.834L225.258 432.825Z" fill="#59797A"/>
<path d="M218.536 436.331L220.259 433.305L217.224 431.525H217.153C216.585 431.28 215.963 431.186 215.348 431.254C214.734 431.321 214.147 431.546 213.646 431.907C212.171 432.867 210.944 434.161 210.064 435.683C209.185 437.204 208.678 438.912 208.585 440.666C208.585 442.286 209.156 443.416 210.076 443.942L213.208 445.722L214.993 442.517C216.79 440.872 218.028 438.71 218.536 436.331Z" fill="#C3C0E7"/>
<path d="M221.002 437.755L222.725 434.729L219.69 432.949H219.619C219.051 432.707 218.431 432.616 217.818 432.685C217.205 432.753 216.62 432.979 216.12 433.34C214.646 434.299 213.419 435.591 212.538 437.111C211.657 438.632 211.148 440.337 211.051 442.09C210.986 442.72 211.091 443.355 211.355 443.931C211.618 444.507 212.031 445.002 212.55 445.366L215.683 447.146L217.468 443.942C219.255 442.29 220.488 440.13 221.002 437.755Z" fill="#C3C0E7"/>
<path d="M214.393 441.743L214.474 441.699C214.474 441.699 217.66 431.364 223.398 436.545L224.987 435.655L225.942 435.112C225.904 434.302 225.661 433.515 225.237 432.824C225.22 432.802 225.205 432.778 225.192 432.753C224.714 432.004 224.05 431.391 223.265 430.973C222.978 430.811 222.68 430.671 222.372 430.554C218.758 429.201 211.662 437.408 211.832 443.256L214.393 441.743Z" fill="#08566B"/>
<path d="M222.647 442.883C224.626 439.449 224.617 435.74 222.627 434.6C220.637 433.459 217.42 435.319 215.441 438.753C213.462 442.188 213.471 445.896 215.461 447.037C217.45 448.177 220.668 446.318 222.647 442.883Z" fill="#A09DF1"/>
<path d="M221.11 442.223C222.066 440.571 222.066 438.786 221.11 438.235C220.154 437.685 218.604 438.577 217.648 440.229C216.691 441.881 216.691 443.667 217.647 444.217C218.604 444.768 220.154 443.875 221.11 442.223Z" fill="#C3C0E7"/>
<path d="M222.394 430.554C222.701 430.671 223 430.811 223.286 430.973C221.394 429.62 217.994 427.982 212.443 427.84C212.443 427.84 204.544 429.869 204.857 439.242L211.836 443.256C211.72 437.408 218.779 429.21 222.394 430.554Z" fill="#38A5BC"/>
<path d="M227.997 396.276L229.72 393.25L226.686 391.47H226.623C226.056 391.228 225.435 391.137 224.822 391.205C224.209 391.274 223.624 391.5 223.125 391.861C221.649 392.819 220.42 394.11 219.539 395.631C218.658 397.151 218.15 398.857 218.055 400.611C218.055 402.231 218.626 403.37 219.555 403.895L222.687 405.676L224.472 402.471C226.261 400.819 227.493 398.655 227.997 396.276Z" fill="#C3C0E7"/>
<path d="M230.272 399.89C231.228 398.23 231.225 396.439 230.264 395.888C229.303 395.337 227.75 396.236 226.793 397.896C225.837 399.555 225.841 401.347 226.801 401.897C227.762 402.448 229.316 401.549 230.272 399.89Z" fill="#374D4F"/>
<path d="M230.427 397.691L232.149 394.656L229.115 392.876L229.052 392.831C228.484 392.595 227.864 392.507 227.252 392.575C226.64 392.644 226.055 392.867 225.554 393.223C224.078 394.181 222.849 395.472 221.969 396.993C221.088 398.513 220.579 400.219 220.484 401.973C220.484 403.593 221.056 404.732 221.984 405.257L225.116 407.038L226.901 403.833C228.682 402.196 229.913 400.052 230.427 397.691Z" fill="#C3C0E7"/>
<path d="M234.691 392.717L234.646 392.663C234.666 392.683 234.681 392.708 234.691 392.735V392.717Z" fill="#59797A"/>
<path d="M231.828 390.482C232.136 390.601 232.434 390.744 232.72 390.909C230.828 389.547 227.428 387.909 221.886 387.776C221.886 387.776 213.987 389.796 214.3 399.169L221.279 403.192C221.145 397.335 228.213 389.155 231.828 390.482Z" fill="#38A5BC"/>
<path d="M223.869 401.653H223.94C223.94 401.653 227.126 391.31 232.865 396.49L234.445 395.6L235.4 395.048C235.362 394.241 235.119 393.457 234.695 392.769C234.685 392.743 234.67 392.718 234.65 392.698C234.174 391.947 233.509 391.334 232.722 390.918C232.436 390.753 232.138 390.61 231.83 390.491C228.26 389.147 221.12 397.345 221.281 403.193L223.869 401.653Z" fill="#08566B"/>
<path d="M232.202 402.835C234.181 399.4 234.172 395.692 232.183 394.551C230.193 393.411 226.976 395.27 224.997 398.704C223.018 402.139 223.026 405.847 225.016 406.988C227.006 408.128 230.223 406.269 232.202 402.835Z" fill="#A09DF1"/>
<path d="M230.541 402.156C231.497 400.504 231.497 398.719 230.541 398.168C229.585 397.618 228.034 398.511 227.078 400.162C226.122 401.814 226.122 403.6 227.078 404.15C228.034 404.701 229.584 403.808 230.541 402.156Z" fill="#C3C0E7"/>
<path d="M328.671 424.11L332.544 418.413L332.553 410.812L328.68 416.508L328.671 424.11Z" fill="#78CDDA"/>
<path d="M332.553 410.812L328.679 416.509L277.282 412.254L281.155 406.557L332.553 410.812Z" fill="#08566B"/>
<path d="M328.679 416.509L328.67 424.11L277.282 419.936V412.254L328.679 416.509Z" fill="#1696B3"/>
<path d="M285.491 444.315H274.487V455.291H285.491V444.315Z" fill="#78CDDA"/>
<path d="M274.486 444.315L266.606 416.9L278.003 415.156L285.491 444.315H274.486Z" fill="#08566B"/>
<path d="M274.487 455.29L265.741 423.113L265.973 414.701L274.487 444.315V455.29Z" fill="#1696B3"/>
<path d="M219.209 380.352L226.768 376.009L268.455 400.006L260.896 404.35L219.209 380.352Z" fill="#08566B"/>
<path d="M260.893 404.35L260.777 413.055L219.099 389.058L219.206 380.352L260.893 404.35Z" fill="#1696B3"/>
<path d="M309.856 371.576L302.877 367.437L269.918 402.418L276.897 406.566L309.856 371.576Z" fill="#08566B"/>
<path d="M276.898 406.566L276.55 412.921L309.5 377.94L309.848 371.585L276.898 406.566Z" fill="#1696B3"/>
<path d="M213.881 435.316L208.937 430.519V422.757L213.881 427.555V435.316Z" fill="#78CDDA"/>
<path d="M208.937 422.757L213.881 427.555L263.36 413.055L258.415 408.257L208.937 422.757Z" fill="#08566B"/>
<path d="M213.88 427.555V435.316L263.359 420.897V413.055L213.88 427.555Z" fill="#1696B3"/>
<path d="M260.127 397.344V416.749C260.127 420.443 264.92 423.442 270.837 423.442C276.754 423.442 281.547 420.443 281.547 416.749V397.344H260.127Z" fill="#1696B3"/>
<path d="M270.819 404.341C276.739 404.341 281.538 401.344 281.538 397.647C281.538 393.95 276.739 390.954 270.819 390.954C264.899 390.954 260.1 393.95 260.1 397.647C260.1 401.344 264.899 404.341 270.819 404.341Z" fill="#828282"/>
<path d="M258.341 388.096V410.643C258.341 414.942 263.91 418.422 270.836 418.422C277.762 418.422 283.277 414.942 283.277 410.643V388.096H258.341Z" fill="#22B4AE"/>
<path d="M270.819 396.223C277.695 396.223 283.269 392.74 283.269 388.443C283.269 384.147 277.695 380.664 270.819 380.664C263.943 380.664 258.369 384.147 258.369 388.443C258.369 392.74 263.943 396.223 270.819 396.223Z" fill="#1696B3"/>
<path d="M260.127 367.713V387.126C260.127 390.82 264.92 393.82 270.837 393.82C276.754 393.82 281.547 390.82 281.547 387.126V367.713H260.127Z" fill="#22B4AE"/>
<path d="M270.819 374.709C276.739 374.709 281.538 371.712 281.538 368.015C281.538 364.319 276.739 361.322 270.819 361.322C264.899 361.322 260.1 364.319 260.1 368.015C260.1 371.712 264.899 374.709 270.819 374.709Z" fill="#828282"/>
<path d="M344.039 338.09L272.239 379.622L196.531 336.016L268.33 294.475L344.039 338.09Z" fill="#A9DED9"/>
<path d="M344.037 347.747L272.256 389.084L272.247 379.426L344.037 338.09V347.747Z" fill="#1696B3"/>
<path d="M196.531 345.674L272.24 389.227V379.569L196.531 336.016V345.674Z" fill="#22B4AE"/>
<path d="M343.99 231.632L272.19 273.165L264.809 268.83L336.609 227.298L343.99 231.632Z" fill="#A9DED9"/>
<path d="M344.001 338.08L272.21 379.417V272.969L343.992 231.632L344.001 338.08Z" fill="#1696B3"/>
<path d="M264.809 375.269L272.19 379.559V273.12L264.809 268.83V375.269Z" fill="#22B4AE"/>
<path d="M242.238 229.376L208.845 210.21L229.443 198.453L262.836 217.619L242.238 229.376Z" fill="#A9DED9" stroke="#23B5AF" stroke-width="0.5"/>
<path d="M242.235 228.182L263.351 216.134V217.624L242.235 229.672V228.182Z" fill="#A09DF1"/>
<path d="M208.35 208.728L242.235 228.174V229.668L208.35 210.288V208.728Z" fill="#A09DF1"/>
<path d="M208.348 208.727L229.45 196.683L263.345 216.137L242.244 228.182L208.348 208.727Z" fill="#C3C0E7"/>
<path d="M216.3 208.485L230.062 200.362L236.824 204.309L223.062 212.432L216.3 208.485Z" fill="#FAE0A1"/>
<path d="M212.686 231.576V232.388L213.568 232.09L212.686 231.576Z" fill="#CE9489"/>
<path d="M232.535 244.139C230.753 246.552 228.214 246.852 224.979 247.033C221.743 247.215 217.762 244.622 216.879 243.475C215.995 242.327 214.429 241.214 211.286 240.466C209.67 240.08 208.766 239.341 208.404 238.391C208.404 238.391 207.644 240.356 211.466 243.341C215.289 246.326 220.863 248.101 223.249 248.293C225.634 248.485 229.2 249.165 232 246.194C232.602 245.56 232.78 244.746 232.696 243.861C232.653 243.959 232.599 244.052 232.535 244.139Z" fill="#CE9489"/>
<path d="M225.021 232.696C221.968 231.056 218.081 228.195 212.685 231.576L213.261 231.976L212.85 232.214L212.194 231.9C212.194 231.9 209.685 232.869 208.686 235.248C208.201 236.404 208.061 237.492 208.404 238.391C208.767 239.341 209.671 240.08 211.286 240.466C214.429 241.214 216.003 242.329 216.879 243.475C217.755 244.62 221.746 247.213 224.979 247.033C228.212 246.854 230.754 246.552 232.536 244.139C232.599 244.052 232.653 243.959 232.696 243.861C233.873 241.19 228.06 234.323 225.021 232.696Z" fill="#D8B4AB"/>
<path d="M215.897 233.223C215.897 233.223 219.94 236.204 220.092 236.28C220.245 236.356 220.527 236.138 220.403 235.922C220.279 235.706 216.266 232.953 216.266 232.953L215.897 233.223Z" fill="#CE9489"/>
<path d="M212.848 232.204L216.28 234.165C216.28 234.165 217.451 233.633 217.597 233.487C217.743 233.341 216.949 232.068 216.112 231.63C215.274 231.192 214.572 231.044 213.853 231.38C213.446 231.554 213.098 231.84 212.848 232.204Z" fill="#FAE0A1"/>
<path d="M212.848 232.204C212.848 232.204 213.901 231.894 214.638 232.296C215.44 232.725 215.999 233.255 216.28 234.165" fill="#CC8535"/>
</svg>
