<svg width="54" height="80" viewBox="0 0 54 80" fill="none" xmlns="http://www.w3.org/2000/svg">
<g clip-path="url(#clip0)">
<path d="M0.153564 4.51565L45.4429 30.7009L53.3698 26.1922L8.07343 0L0.153564 4.51565Z" fill="#1696B3"/>
<path d="M0 52.9716L45.2894 79.1218L45.4431 30.6659L0.153784 4.51569L0 52.9716Z" fill="#A9DED9"/>
<path d="M53.223 74.6481L45.2961 79.1498L45.4429 30.6939L53.3698 26.1922L53.223 74.6481Z" fill="#22B4AE"/>
<path d="M0 52.9576V63.2961L8.96141 58.1233L0 52.9576Z" fill="#A9DED9"/>
<path fill-rule="evenodd" clip-rule="evenodd" d="M21.6697 40.7108L23.7248 41.8991V61.8001C23.7667 62.0727 23.6689 62.2754 23.4312 62.3314C23.1395 62.329 22.8531 62.2527 22.5989 62.1097C22.3446 61.9667 22.1308 61.7616 21.9772 61.5135C21.802 61.298 21.6949 61.0352 21.6697 60.7586V40.7108Z" fill="#22B4AE"/>
<path d="M23.6272 42.2319C23.8836 41.9697 23.6798 41.3545 23.1719 40.8579C22.664 40.3613 22.0444 40.1712 21.788 40.4334C21.5316 40.6956 21.7354 41.3108 22.2433 41.8075C22.7512 42.3041 23.3708 42.4942 23.6272 42.2319Z" fill="#22B4AE"/>
<path d="M22.718 42.5072C22.718 37.1737 25.6329 28.5688 37.4673 36.8522C37.9216 41.8362 35.6079 49.9518 22.718 42.5072Z" fill="#CE9489"/>
<path d="M22.7178 42.5073C22.7178 37.1947 19.8099 25.2136 7.96849 19.8242C7.51413 24.2839 9.82788 35.0697 22.7178 42.5073Z" fill="#CE9489"/>
</g>
<defs>
<clipPath id="clip0">
<rect width="53.37" height="79.1498" fill="white"/>
</clipPath>
</defs>
</svg>
