<svg width="282" height="61" viewBox="0 0 282 61" fill="none" xmlns="http://www.w3.org/2000/svg">
<g clip-path="url(#clip0)">
<path d="M99.2524 34.6616L97.5764 39.4199H97.4368C97.1575 38.347 96.6454 36.7142 95.8074 34.7549L86.8226 12.1292H78.0239V48.1903H83.8431V25.9379C83.8431 24.5383 83.8431 22.9522 83.7966 20.9929C83.75 20.0132 83.6569 19.2668 83.6104 18.707H83.75C84.0293 20.1065 84.3552 21.1328 84.588 21.7859L95.3884 48.097H99.4851L110.192 21.5527C110.425 20.9462 110.658 19.7333 110.891 18.707H111.03C110.891 21.3661 110.798 23.7453 110.751 25.1914V48.0503H116.943V12.0359H108.47L99.2524 34.6616ZM122.808 22.2058H128.86V48.0503H122.808V22.2058ZM125.881 11.2895C124.857 11.2895 124.019 11.6627 123.321 12.3158C122.622 12.9689 122.25 13.8086 122.25 14.835C122.25 15.8146 122.622 16.6543 123.321 17.3075C124.019 17.9606 124.857 18.2871 125.881 18.2871C126.905 18.2871 127.79 17.9139 128.441 17.3075C129.14 16.6543 129.512 15.8146 129.512 14.835C129.512 13.8553 129.14 13.0156 128.441 12.3158C127.836 11.6627 126.952 11.2895 125.881 11.2895ZM150.322 21.9725C149.204 21.7393 148.041 21.5993 146.923 21.5993C144.177 21.5993 141.663 22.2058 139.568 23.4187C137.473 24.6316 135.797 26.3111 134.726 28.4104C133.609 30.5563 133.05 33.0288 133.05 35.8745C133.05 38.347 133.609 40.5396 134.68 42.5455C135.75 44.5049 137.24 46.091 139.242 47.164C141.151 48.2369 143.385 48.7968 145.899 48.7968C148.785 48.7968 151.253 48.1903 153.208 47.0707L153.255 47.024V41.4259L153.022 41.6125C152.137 42.2656 151.113 42.8255 150.089 43.152C149.018 43.5252 148.041 43.7118 147.203 43.7118C144.782 43.7118 142.873 43.0121 141.523 41.4726C140.126 39.9798 139.428 37.9271 139.428 35.3613C139.428 32.7022 140.126 30.6029 141.57 29.0635C143.013 27.524 144.921 26.7309 147.249 26.7309C149.204 26.7309 151.206 27.384 153.022 28.6903L153.255 28.8769V22.9522L153.208 22.9056C152.417 22.579 151.532 22.2058 150.322 21.9725ZM170.293 21.7859C168.803 21.7859 167.407 22.2524 166.196 23.2321C165.172 24.0718 164.474 25.2847 163.869 26.7309H163.822V22.2058H157.77V48.0503H163.822V34.8482C163.822 32.6089 164.288 30.7429 165.312 29.39C166.336 27.9905 167.64 27.2907 169.222 27.2907C169.781 27.2907 170.34 27.4307 171.038 27.524C171.69 27.7106 172.155 27.8972 172.481 28.1304L172.714 28.317V22.2524L172.574 22.2058C172.155 21.9259 171.317 21.7859 170.293 21.7859ZM186.773 21.646C182.537 21.646 179.138 22.9056 176.764 25.378C174.343 27.8505 173.179 31.2561 173.179 35.5479C173.179 39.5599 174.39 42.8255 176.718 45.2046C179.045 47.5372 182.211 48.7501 186.168 48.7501C190.311 48.7501 193.617 47.4905 195.991 44.9714C198.412 42.4522 199.575 39.0934 199.575 34.9415C199.575 30.8362 198.458 27.5706 196.177 25.1914C193.989 22.8123 190.777 21.646 186.773 21.646ZM191.615 41.5192C190.497 42.9654 188.728 43.6652 186.54 43.6652C184.352 43.6652 182.583 42.9654 181.326 41.4259C180.069 39.9798 179.464 37.8805 179.464 35.2214C179.464 32.469 180.116 30.3697 181.326 28.8769C182.583 27.384 184.306 26.6376 186.494 26.6376C188.635 26.6376 190.311 27.3374 191.522 28.7836C192.732 30.2297 193.384 32.329 193.384 35.0814C193.291 37.8805 192.779 40.0731 191.615 41.5192ZM213.076 32.9355C211.167 32.1424 209.957 31.536 209.398 31.0228C208.933 30.5563 208.7 29.9032 208.7 29.0635C208.7 28.3637 208.979 27.6639 209.678 27.1974C210.376 26.7309 211.167 26.4977 212.331 26.4977C213.355 26.4977 214.426 26.6843 215.45 26.9642C216.474 27.2441 217.405 27.6639 218.15 28.2237L218.383 28.4104V22.719L218.243 22.6723C217.545 22.3924 216.614 22.1125 215.497 21.8792C214.379 21.6926 213.355 21.5993 212.517 21.5993C209.631 21.5993 207.257 22.2991 205.395 23.8386C203.532 25.2847 202.648 27.2441 202.648 29.53C202.648 30.7429 202.834 31.8159 203.253 32.7022C203.672 33.5886 204.277 34.4283 205.115 35.1281C205.953 35.7812 207.164 36.5276 208.84 37.2274C210.236 37.8338 211.307 38.3003 211.959 38.6735C212.61 39.0467 213.029 39.4666 213.355 39.7932C213.588 40.1664 213.728 40.6329 213.728 41.2393C213.728 42.9654 212.424 43.8051 209.771 43.8051C208.746 43.8051 207.676 43.6185 206.419 43.1987C205.162 42.7788 203.998 42.1723 203.02 41.4726L202.788 41.286V47.2106L202.927 47.2573C203.812 47.6771 204.882 47.957 206.186 48.2836C207.489 48.5169 208.653 48.7035 209.678 48.7035C212.797 48.7035 215.357 48.0037 217.173 46.4642C219.035 44.9714 220.012 43.0587 220.012 40.5862C220.012 38.8601 219.547 37.3207 218.523 36.1544C217.173 35.0348 215.497 33.8685 213.076 32.9355ZM235.98 21.646C231.744 21.646 228.346 22.9056 225.971 25.378C223.597 27.8505 222.387 31.2561 222.387 35.5479C222.387 39.5599 223.597 42.8255 225.925 45.2046C228.252 47.5372 231.418 48.7501 235.375 48.7501C239.518 48.7501 242.824 47.4905 245.198 44.9714C247.619 42.4522 248.783 39.0934 248.783 34.9415C248.783 30.8362 247.665 27.5706 245.384 25.1914C243.196 22.8123 239.984 21.646 235.98 21.646ZM240.775 41.5192C239.658 42.9654 237.889 43.6652 235.701 43.6652C233.466 43.6652 231.744 42.9654 230.487 41.4259C229.23 39.9798 228.625 37.8805 228.625 35.2214C228.625 32.469 229.277 30.3697 230.487 28.8769C231.744 27.384 233.466 26.6376 235.654 26.6376C237.749 26.6376 239.472 27.3374 240.682 28.7836C241.893 30.2297 242.544 32.329 242.544 35.0814C242.544 37.8805 241.939 40.0731 240.775 41.5192ZM281.137 27.1974V22.2058H275.039V14.5551L274.853 14.6017L269.08 16.3278L268.94 16.3744V22.2058H259.816V18.9402C259.816 17.4474 260.188 16.2811 260.84 15.5347C261.492 14.7883 262.469 14.4151 263.68 14.4151C264.518 14.4151 265.402 14.6017 266.38 15.0216L266.613 15.1615V9.88998L266.473 9.84332C265.635 9.56342 264.518 9.37682 263.074 9.37682C261.259 9.37682 259.676 9.79667 258.233 10.4964C256.79 11.2895 255.719 12.3625 254.928 13.8086C254.136 15.2082 253.717 16.7943 253.717 18.6137V22.2058H249.481V27.1508H253.717V48.0503H259.816V27.1974H268.94V40.4929C268.94 45.9511 271.501 48.7035 276.622 48.7035C277.46 48.7035 278.344 48.5635 279.182 48.4236C280.067 48.2369 280.718 48.0037 281.091 47.8171L281.137 47.7704V42.7788L280.905 42.9654C280.532 43.1987 280.206 43.3853 279.648 43.5252C279.182 43.6652 278.763 43.7118 278.437 43.7118C277.227 43.7118 276.389 43.4319 275.784 42.7322C275.225 42.079 274.946 41.0061 274.946 39.4199V27.1974H281.137Z" fill="#737373"/>
<path d="M0 0H28.5374V28.5969H0V0Z" fill="#F25022"/>
<path d="M31.5168 0H60.0542V28.5969H31.5168V0Z" fill="#7FBA00"/>
<path d="M0 31.5826H28.5374V60.1795H0V31.5826Z" fill="#00A4EF"/>
<path d="M31.5168 31.5826H60.0542V60.1795H31.5168V31.5826Z" fill="#FFB900"/>
</g>
<defs>
<clipPath id="clip0">
<rect width="281.184" height="60.1795" fill="white"/>
</clipPath>
</defs>
</svg>
